M48
; DRILL file {KiCad (5.1.9)-1} date 03/23/21 22:38:32
; FORMAT={-:-/ absolute / metric / decimal}
; #@! TF.CreationDate,2021-03-23T22:38:32+04:00
; #@! TF.GenerationSoftware,Kicad,Pcbnew,(5.1.9)-1
; #@! TF.FileFunction,Plated,1,4,PTH
FMAT,2
METRIC
T1C0.400
T2C0.600
T3C0.650
T4C0.800
T5C1.000
T6C3.200
%
G90
G05
T1
X113.7Y-72.8
X114.046Y-77.14
X115.166Y-47.534
X115.57Y-82.804
X115.6Y-85.1
X119.38Y-50.482
X120.2Y-56.5
X120.2Y-61.0
X120.5Y-79.4
X120.7Y-69.2
X120.777Y-75.438
X122.555Y-72.593
X124.2Y-83.6
X125.3Y-52.9
X125.857Y-81.89
X126.309Y-60.399
X127.281Y-70.073
X128.079Y-67.882
X128.178Y-60.14
X128.27Y-80.924
X129.41Y-58.801
X129.667Y-73.025
X131.445Y-79.502
X132.182Y-83.617
X133.35Y-74.422
X133.9Y-69.9
X135.1Y-63.3
X136.417Y-53.677
X139.7Y-77.9
X152.0Y-67.3
X169.342Y-83.845
X171.526Y-77.114
X172.517Y-64.313
T3
X122.052Y-65.027
X123.322Y-65.027
X124.592Y-65.027
X125.862Y-65.027
X127.132Y-65.027
X128.402Y-65.027
X133.794Y-60.706
X135.064Y-60.706
X136.334Y-60.706
X137.605Y-60.706
T4
X140.208Y-80.01
X140.208Y-87.63
X142.748Y-80.01
X142.748Y-87.63
X145.288Y-80.01
X145.288Y-87.63
X147.828Y-80.01
X147.828Y-87.63
X148.797Y-73.343
X150.368Y-80.01
X150.368Y-87.63
X152.908Y-80.01
X152.908Y-87.63
X153.797Y-73.343
X155.448Y-80.01
X155.448Y-87.63
X157.988Y-80.01
X157.988Y-87.63
X160.528Y-80.01
X160.528Y-87.63
X163.068Y-80.01
X163.068Y-87.63
X165.608Y-80.01
X165.608Y-87.63
X168.148Y-80.01
X168.148Y-87.63
X170.688Y-80.01
X170.688Y-87.63
X173.228Y-80.01
X173.228Y-87.63
T5
X128.524Y-48.006
X131.064Y-48.006
X133.604Y-48.006
X136.144Y-48.006
X137.668Y-96.266
X138.684Y-48.006
X140.208Y-96.266
X141.224Y-48.006
X142.748Y-96.266
X143.764Y-48.006
X145.288Y-96.266
X146.304Y-48.006
X147.828Y-96.266
X148.844Y-48.006
X150.368Y-96.266
X151.384Y-48.006
X152.908Y-96.266
X155.448Y-48.006
X155.448Y-96.266
X157.988Y-48.006
X160.528Y-48.006
X160.528Y-96.266
X163.068Y-48.006
X163.068Y-96.266
X165.608Y-48.006
X165.608Y-96.266
X168.148Y-48.006
X168.148Y-96.266
X170.688Y-48.006
X170.688Y-96.266
X173.037Y-69.088
X173.037Y-71.628
X173.037Y-74.168
X173.228Y-48.006
X173.228Y-96.266
X175.577Y-69.088
X175.577Y-71.628
X175.577Y-74.168
T6
X123.698Y-96.266
X124.968Y-48.006
X175.768Y-63.246
X175.768Y-91.186
T2
G00X113.105Y-55.497
M15
G01X112.505Y-55.497
M16
G05
G00X113.105Y-64.137
M15
G01X112.505Y-64.137
M16
G05
G00X117.535Y-55.497
M15
G01X116.435Y-55.497
M16
G05
G00X117.535Y-64.137
M15
G01X116.435Y-64.137
M16
G05
T5
G00X113.482Y-90.364
M15
G01X113.482Y-92.364
M16
G05
G00X115.482Y-96.064
M15
G01X117.482Y-96.064
M16
G05
G00X119.482Y-90.364
M15
G01X119.482Y-92.364
M16
G05
T0
M30
