G04 #@! TF.GenerationSoftware,KiCad,Pcbnew,(5.1.9)-1*
G04 #@! TF.CreationDate,2021-03-23T22:38:23+04:00*
G04 #@! TF.ProjectId,stormduino Rev2,73746f72-6d64-4756-996e-6f2052657632,rev?*
G04 #@! TF.SameCoordinates,Original*
G04 #@! TF.FileFunction,Copper,L4,Bot*
G04 #@! TF.FilePolarity,Positive*
%FSLAX46Y46*%
G04 Gerber Fmt 4.6, Leading zero omitted, Abs format (unit mm)*
G04 Created by KiCad (PCBNEW (5.1.9)-1) date 2021-03-23 22:38:23*
%MOMM*%
%LPD*%
G01*
G04 APERTURE LIST*
G04 #@! TA.AperFunction,ComponentPad*
%ADD10O,1.000000X1.000000*%
G04 #@! TD*
G04 #@! TA.AperFunction,ComponentPad*
%ADD11R,1.000000X1.000000*%
G04 #@! TD*
G04 #@! TA.AperFunction,ComponentPad*
%ADD12C,1.500000*%
G04 #@! TD*
G04 #@! TA.AperFunction,ComponentPad*
%ADD13O,2.100000X1.000000*%
G04 #@! TD*
G04 #@! TA.AperFunction,ComponentPad*
%ADD14O,1.600000X1.000000*%
G04 #@! TD*
G04 #@! TA.AperFunction,ComponentPad*
%ADD15O,1.700000X1.700000*%
G04 #@! TD*
G04 #@! TA.AperFunction,ComponentPad*
%ADD16R,1.700000X1.700000*%
G04 #@! TD*
G04 #@! TA.AperFunction,ComponentPad*
%ADD17R,1.600000X1.600000*%
G04 #@! TD*
G04 #@! TA.AperFunction,ComponentPad*
%ADD18O,1.600000X1.600000*%
G04 #@! TD*
G04 #@! TA.AperFunction,ComponentPad*
%ADD19R,3.500000X3.500000*%
G04 #@! TD*
G04 #@! TA.AperFunction,ViaPad*
%ADD20C,3.300000*%
G04 #@! TD*
G04 #@! TA.AperFunction,ViaPad*
%ADD21C,0.800000*%
G04 #@! TD*
G04 #@! TA.AperFunction,Conductor*
%ADD22C,0.250000*%
G04 #@! TD*
G04 #@! TA.AperFunction,Conductor*
%ADD23C,0.500000*%
G04 #@! TD*
G04 APERTURE END LIST*
D10*
X128402080Y-65026540D03*
X127132080Y-65026540D03*
X125862080Y-65026540D03*
X124592080Y-65026540D03*
X123322080Y-65026540D03*
D11*
X122052080Y-65026540D03*
D10*
X137604500Y-60706000D03*
X136334500Y-60706000D03*
X135064500Y-60706000D03*
D11*
X133794500Y-60706000D03*
D12*
X153797000Y-73342500D03*
X148797000Y-73342500D03*
D13*
X116985500Y-64137000D03*
X116985500Y-55497000D03*
D14*
X112805500Y-55497000D03*
X112805500Y-64137000D03*
D15*
X175577500Y-74168000D03*
X173037500Y-74168000D03*
X175577500Y-71628000D03*
X173037500Y-71628000D03*
X175577500Y-69088000D03*
D16*
X173037500Y-69088000D03*
D17*
X173228000Y-80010000D03*
D18*
X140208000Y-87630000D03*
X170688000Y-80010000D03*
X142748000Y-87630000D03*
X168148000Y-80010000D03*
X145288000Y-87630000D03*
X165608000Y-80010000D03*
X147828000Y-87630000D03*
X163068000Y-80010000D03*
X150368000Y-87630000D03*
X160528000Y-80010000D03*
X152908000Y-87630000D03*
X157988000Y-80010000D03*
X155448000Y-87630000D03*
X155448000Y-80010000D03*
X157988000Y-87630000D03*
X152908000Y-80010000D03*
X160528000Y-87630000D03*
X150368000Y-80010000D03*
X163068000Y-87630000D03*
X147828000Y-80010000D03*
X165608000Y-87630000D03*
X145288000Y-80010000D03*
X168148000Y-87630000D03*
X142748000Y-80010000D03*
X170688000Y-87630000D03*
X140208000Y-80010000D03*
X173228000Y-87630000D03*
G04 #@! TA.AperFunction,ComponentPad*
G36*
G01*
X114731600Y-96938800D02*
X114731600Y-95188800D01*
G75*
G02*
X115606600Y-94313800I875000J0D01*
G01*
X117356600Y-94313800D01*
G75*
G02*
X118231600Y-95188800I0J-875000D01*
G01*
X118231600Y-96938800D01*
G75*
G02*
X117356600Y-97813800I-875000J0D01*
G01*
X115606600Y-97813800D01*
G75*
G02*
X114731600Y-96938800I0J875000D01*
G01*
G37*
G04 #@! TD.AperFunction*
G04 #@! TA.AperFunction,ComponentPad*
G36*
G01*
X111981600Y-92363800D02*
X111981600Y-90363800D01*
G75*
G02*
X112731600Y-89613800I750000J0D01*
G01*
X114231600Y-89613800D01*
G75*
G02*
X114981600Y-90363800I0J-750000D01*
G01*
X114981600Y-92363800D01*
G75*
G02*
X114231600Y-93113800I-750000J0D01*
G01*
X112731600Y-93113800D01*
G75*
G02*
X111981600Y-92363800I0J750000D01*
G01*
G37*
G04 #@! TD.AperFunction*
D19*
X119481600Y-91363800D03*
D16*
X137668000Y-96266000D03*
D15*
X140208000Y-96266000D03*
X142748000Y-96266000D03*
X145288000Y-96266000D03*
X147828000Y-96266000D03*
X150368000Y-96266000D03*
X152908000Y-96266000D03*
X155448000Y-96266000D03*
X128524000Y-48006000D03*
X131064000Y-48006000D03*
X133604000Y-48006000D03*
X136144000Y-48006000D03*
X138684000Y-48006000D03*
X141224000Y-48006000D03*
X143764000Y-48006000D03*
X146304000Y-48006000D03*
X148844000Y-48006000D03*
D16*
X151384000Y-48006000D03*
D15*
X155448000Y-48006000D03*
X157988000Y-48006000D03*
X160528000Y-48006000D03*
X163068000Y-48006000D03*
X165608000Y-48006000D03*
X168148000Y-48006000D03*
X170688000Y-48006000D03*
D16*
X173228000Y-48006000D03*
D15*
X173228000Y-96266000D03*
X170688000Y-96266000D03*
X168148000Y-96266000D03*
X165608000Y-96266000D03*
X163068000Y-96266000D03*
D16*
X160528000Y-96266000D03*
D20*
X175768000Y-91186000D03*
X175768000Y-63246000D03*
X124968000Y-48006000D03*
X123698000Y-96266000D03*
D21*
X133350000Y-74422000D03*
X115570000Y-82804000D03*
X122555000Y-72593200D03*
X114046000Y-77139800D03*
X125857001Y-81889601D03*
X127280510Y-70073057D03*
X131445000Y-79502000D03*
X120200000Y-61000000D03*
X120200000Y-56500000D03*
X139700000Y-77900000D03*
X113700000Y-72800000D03*
X133900000Y-69900000D03*
X135100000Y-63300000D03*
X125300000Y-52900000D03*
X152000000Y-67300000D03*
X115600000Y-85100000D03*
X124200000Y-83600000D03*
X120700000Y-69200000D03*
X128270000Y-80924400D03*
X132181600Y-83616800D03*
X115166000Y-47534000D03*
X120500000Y-79400000D03*
X129667000Y-73025000D03*
X120777000Y-75438000D03*
X129410000Y-58801328D03*
X172516800Y-64312800D03*
X119380000Y-50482500D03*
X128079500Y-67881500D03*
X136417050Y-53676550D03*
X169341802Y-83845400D03*
X171526200Y-77114400D03*
X126309120Y-60398660D03*
X128177586Y-60139980D03*
D22*
X157988000Y-82550000D02*
X152908000Y-87630000D01*
X157988000Y-80010000D02*
X157988000Y-82550000D01*
D23*
X123444000Y-73482200D02*
X122555000Y-72593200D01*
X125857001Y-81889601D02*
X123444000Y-79476600D01*
X123444000Y-79476600D02*
X123444000Y-73482200D01*
D22*
X131445000Y-78936315D02*
X131445000Y-79502000D01*
X131445000Y-75761315D02*
X131445000Y-78936315D01*
X132784315Y-74422000D02*
X131445000Y-75761315D01*
X133350000Y-74422000D02*
X132784315Y-74422000D01*
D23*
X115570000Y-80391000D02*
X115570000Y-82804000D01*
X115570000Y-75630000D02*
X115570000Y-80391000D01*
X119318000Y-71882000D02*
X115570000Y-75630000D01*
X121278115Y-71882000D02*
X119318000Y-71882000D01*
X121989315Y-72593200D02*
X121278115Y-71882000D01*
X122555000Y-72593200D02*
X121989315Y-72593200D01*
D22*
X127280510Y-69076410D02*
X127280510Y-70073057D01*
X118198900Y-68407280D02*
X126611380Y-68407280D01*
X116500000Y-70106180D02*
X118198900Y-68407280D01*
X116500000Y-73100000D02*
X116500000Y-70106180D01*
X126611380Y-68407280D02*
X127280510Y-69076410D01*
X114046000Y-75554000D02*
X116500000Y-73100000D01*
X114046000Y-77139800D02*
X114046000Y-75554000D01*
X129667000Y-73025000D02*
X129667000Y-72459315D01*
X129809999Y-59201327D02*
X129410000Y-58801328D01*
X129809999Y-72316316D02*
X129809999Y-59201327D01*
X129667000Y-72459315D02*
X129809999Y-72316316D01*
D23*
X143713200Y-97840800D02*
X128854200Y-97840800D01*
X145288000Y-96266000D02*
X143713200Y-97840800D01*
X120777000Y-76682600D02*
X120777000Y-75438000D01*
X128854200Y-97840800D02*
X121945400Y-90932000D01*
X121945400Y-90932000D02*
X121945400Y-77851000D01*
X121945400Y-77851000D02*
X120777000Y-76682600D01*
D22*
X173887499Y-73318001D02*
X173037500Y-74168000D01*
X174294800Y-72910700D02*
X173887499Y-73318001D01*
X174294800Y-66090800D02*
X174294800Y-72910700D01*
X172516800Y-64312800D02*
X174294800Y-66090800D01*
X173228000Y-80010000D02*
X173228000Y-85915500D01*
X173228000Y-85915500D02*
X171958000Y-87185500D01*
X171958000Y-87185500D02*
X171958000Y-90741500D01*
X169538499Y-93161001D02*
X171958000Y-90741500D01*
X145852999Y-93161001D02*
X169538499Y-93161001D01*
X142748000Y-96266000D02*
X145852999Y-93161001D01*
X127475001Y-72607001D02*
X128079500Y-72002502D01*
X127475001Y-85488801D02*
X127475001Y-72607001D01*
X136728200Y-94742000D02*
X127475001Y-85488801D01*
X141224000Y-94742000D02*
X136728200Y-94742000D01*
X142748000Y-96266000D02*
X141224000Y-94742000D01*
X128079500Y-72002502D02*
X128079500Y-68447185D01*
X128079500Y-68447185D02*
X128079500Y-67881500D01*
X121305320Y-67881500D02*
X128079500Y-67881500D01*
X119380000Y-50482500D02*
X119380000Y-65956180D01*
X119380000Y-65956180D02*
X121305320Y-67881500D01*
X148844000Y-67310000D02*
X148844000Y-48006000D01*
X138112500Y-78041500D02*
X148844000Y-67310000D01*
X138112500Y-85915500D02*
X138112500Y-78041500D01*
X140208000Y-87630000D02*
X139827000Y-87630000D01*
X139827000Y-87630000D02*
X138112500Y-85915500D01*
X173164500Y-48069500D02*
X173228000Y-48006000D01*
X173164500Y-51435000D02*
X173164500Y-48069500D01*
X170688000Y-80010000D02*
X170688000Y-53911500D01*
X170688000Y-53911500D02*
X173164500Y-51435000D01*
X173228000Y-46906000D02*
X173228000Y-48006000D01*
X172664300Y-46342300D02*
X173228000Y-46906000D01*
X138137900Y-46342300D02*
X172664300Y-46342300D01*
X136417050Y-53676550D02*
X136817049Y-53276551D01*
X136817049Y-50483951D02*
X137439400Y-49861600D01*
X136817049Y-53276551D02*
X136817049Y-50483951D01*
X137439400Y-49861600D02*
X137439400Y-47040800D01*
X137439400Y-47040800D02*
X138137900Y-46342300D01*
X146304000Y-68770500D02*
X146304000Y-48006000D01*
X137160000Y-77914500D02*
X146304000Y-68770500D01*
X137160000Y-86550500D02*
X137160000Y-77914500D01*
X139890500Y-89281000D02*
X137160000Y-86550500D01*
X142748000Y-87630000D02*
X141097000Y-89281000D01*
X141097000Y-89281000D02*
X139890500Y-89281000D01*
X168148000Y-54864000D02*
X168148000Y-80010000D01*
X170688000Y-48006000D02*
X170688000Y-52324000D01*
X170688000Y-52324000D02*
X168148000Y-54864000D01*
X143764000Y-70104000D02*
X143764000Y-48006000D01*
X145288000Y-88582500D02*
X143954500Y-89916000D01*
X143954500Y-89916000D02*
X139509500Y-89916000D01*
X139509500Y-89916000D02*
X136080500Y-86487000D01*
X136080500Y-86487000D02*
X136080500Y-85519500D01*
X145288000Y-87630000D02*
X145288000Y-88582500D01*
X136080500Y-77787500D02*
X143764000Y-70104000D01*
X136080500Y-85519500D02*
X136080500Y-77787500D01*
X168148000Y-52070000D02*
X168148000Y-48006000D01*
X165608000Y-80010000D02*
X165608000Y-54610000D01*
X165608000Y-54610000D02*
X168148000Y-52070000D01*
X141224000Y-71437500D02*
X141224000Y-48006000D01*
X135318500Y-77343000D02*
X141224000Y-71437500D01*
X135318500Y-86741000D02*
X135318500Y-77343000D01*
X139065000Y-90487500D02*
X135318500Y-86741000D01*
X147828000Y-87630000D02*
X144970500Y-90487500D01*
X144970500Y-90487500D02*
X139065000Y-90487500D01*
X165608000Y-53149500D02*
X165608000Y-48006000D01*
X163068000Y-80010000D02*
X163068000Y-55689500D01*
X163068000Y-55689500D02*
X165608000Y-53149500D01*
X134493000Y-86995000D02*
X134493000Y-76898500D01*
X138684000Y-62039500D02*
X138684000Y-48006000D01*
X139255500Y-72136000D02*
X139255500Y-62611000D01*
X139255500Y-62611000D02*
X138684000Y-62039500D01*
X150368000Y-87630000D02*
X150368000Y-90170000D01*
X150368000Y-90170000D02*
X149352000Y-91186000D01*
X149352000Y-91186000D02*
X138684000Y-91186000D01*
X138684000Y-91186000D02*
X134493000Y-86995000D01*
X134493000Y-76898500D02*
X139255500Y-72136000D01*
X163068000Y-53911500D02*
X163068000Y-48006000D01*
X160528000Y-80010000D02*
X160528000Y-56451500D01*
X160528000Y-56451500D02*
X163068000Y-53911500D01*
X151193500Y-91884500D02*
X138366500Y-91884500D01*
X130429000Y-62290788D02*
X134453999Y-58265789D01*
X155448000Y-87630000D02*
X151193500Y-91884500D01*
X134453999Y-48855999D02*
X133604000Y-48006000D01*
X134453999Y-58265789D02*
X134453999Y-48855999D01*
X130429000Y-83947000D02*
X130429000Y-62290788D01*
X138366500Y-91884500D02*
X130429000Y-83947000D01*
X160528000Y-52705000D02*
X160528000Y-48006000D01*
X158940500Y-54292500D02*
X160528000Y-52705000D01*
X158940500Y-74549000D02*
X158940500Y-54292500D01*
X155384500Y-78105000D02*
X158940500Y-74549000D01*
X147828000Y-80010000D02*
X149733000Y-78105000D01*
X149733000Y-78105000D02*
X155384500Y-78105000D01*
X146087999Y-79210001D02*
X146087999Y-73622001D01*
X145288000Y-80010000D02*
X146087999Y-79210001D01*
X146087999Y-73622001D02*
X150177500Y-69532500D01*
X150177500Y-69532500D02*
X155765500Y-69532500D01*
X157988000Y-67310000D02*
X157988000Y-48006000D01*
X155765500Y-69532500D02*
X157988000Y-67310000D01*
X143547999Y-79210001D02*
X143547999Y-75082501D01*
X142748000Y-80010000D02*
X143547999Y-79210001D01*
X143547999Y-75082501D02*
X150241000Y-68389500D01*
X150241000Y-68389500D02*
X155067000Y-68389500D01*
X155448000Y-68008500D02*
X155448000Y-48006000D01*
X155067000Y-68389500D02*
X155448000Y-68008500D01*
X170688000Y-87630000D02*
X169341802Y-86283802D01*
X169341802Y-86283802D02*
X169341802Y-84411085D01*
X169341802Y-84411085D02*
X169341802Y-83845400D01*
X151384000Y-65849500D02*
X151384000Y-48006000D01*
X141007999Y-76225501D02*
X151384000Y-65849500D01*
X140208000Y-80010000D02*
X141007999Y-79210001D01*
X141007999Y-79210001D02*
X141007999Y-76225501D01*
X172091885Y-77114400D02*
X171526200Y-77114400D01*
X172517402Y-77114400D02*
X172091885Y-77114400D01*
X175209200Y-79806198D02*
X172517402Y-77114400D01*
X175209200Y-85648800D02*
X175209200Y-79806198D01*
X173228000Y-87630000D02*
X175209200Y-85648800D01*
X126309120Y-64203580D02*
X127132080Y-65026540D01*
X126309120Y-60398660D02*
X126309120Y-64203580D01*
X128177586Y-64802046D02*
X128402080Y-65026540D01*
X128177586Y-60139980D02*
X128177586Y-64802046D01*
M02*
