G04 #@! TF.GenerationSoftware,KiCad,Pcbnew,(5.1.9)-1*
G04 #@! TF.CreationDate,2021-03-23T22:38:23+04:00*
G04 #@! TF.ProjectId,stormduino Rev2,73746f72-6d64-4756-996e-6f2052657632,rev?*
G04 #@! TF.SameCoordinates,Original*
G04 #@! TF.FileFunction,Copper,L1,Top*
G04 #@! TF.FilePolarity,Positive*
%FSLAX46Y46*%
G04 Gerber Fmt 4.6, Leading zero omitted, Abs format (unit mm)*
G04 Created by KiCad (PCBNEW (5.1.9)-1) date 2021-03-23 22:38:23*
%MOMM*%
%LPD*%
G01*
G04 APERTURE LIST*
G04 #@! TA.AperFunction,ComponentPad*
%ADD10O,1.000000X1.000000*%
G04 #@! TD*
G04 #@! TA.AperFunction,ComponentPad*
%ADD11R,1.000000X1.000000*%
G04 #@! TD*
G04 #@! TA.AperFunction,ComponentPad*
%ADD12C,1.500000*%
G04 #@! TD*
G04 #@! TA.AperFunction,SMDPad,CuDef*
%ADD13R,2.500000X1.800000*%
G04 #@! TD*
G04 #@! TA.AperFunction,SMDPad,CuDef*
%ADD14R,1.450000X0.600000*%
G04 #@! TD*
G04 #@! TA.AperFunction,SMDPad,CuDef*
%ADD15R,1.450000X0.300000*%
G04 #@! TD*
G04 #@! TA.AperFunction,ComponentPad*
%ADD16O,2.100000X1.000000*%
G04 #@! TD*
G04 #@! TA.AperFunction,ComponentPad*
%ADD17O,1.600000X1.000000*%
G04 #@! TD*
G04 #@! TA.AperFunction,ComponentPad*
%ADD18O,1.700000X1.700000*%
G04 #@! TD*
G04 #@! TA.AperFunction,ComponentPad*
%ADD19R,1.700000X1.700000*%
G04 #@! TD*
G04 #@! TA.AperFunction,ComponentPad*
%ADD20R,1.600000X1.600000*%
G04 #@! TD*
G04 #@! TA.AperFunction,ComponentPad*
%ADD21O,1.600000X1.600000*%
G04 #@! TD*
G04 #@! TA.AperFunction,SMDPad,CuDef*
%ADD22R,0.800000X0.900000*%
G04 #@! TD*
G04 #@! TA.AperFunction,SMDPad,CuDef*
%ADD23R,1.550000X1.300000*%
G04 #@! TD*
G04 #@! TA.AperFunction,ComponentPad*
%ADD24R,3.500000X3.500000*%
G04 #@! TD*
G04 #@! TA.AperFunction,SMDPad,CuDef*
%ADD25R,2.000000X3.800000*%
G04 #@! TD*
G04 #@! TA.AperFunction,SMDPad,CuDef*
%ADD26R,2.000000X1.500000*%
G04 #@! TD*
G04 #@! TA.AperFunction,ViaPad*
%ADD27C,3.300000*%
G04 #@! TD*
G04 #@! TA.AperFunction,ViaPad*
%ADD28C,0.800000*%
G04 #@! TD*
G04 #@! TA.AperFunction,Conductor*
%ADD29C,0.250000*%
G04 #@! TD*
G04 #@! TA.AperFunction,Conductor*
%ADD30C,0.500000*%
G04 #@! TD*
G04 #@! TA.AperFunction,Conductor*
%ADD31C,0.700000*%
G04 #@! TD*
G04 #@! TA.AperFunction,Conductor*
%ADD32C,0.600000*%
G04 #@! TD*
G04 APERTURE END LIST*
D10*
X128402080Y-65026540D03*
X127132080Y-65026540D03*
X125862080Y-65026540D03*
X124592080Y-65026540D03*
X123322080Y-65026540D03*
D11*
X122052080Y-65026540D03*
D10*
X137604500Y-60706000D03*
X136334500Y-60706000D03*
X135064500Y-60706000D03*
D11*
X133794500Y-60706000D03*
G04 #@! TA.AperFunction,SMDPad,CuDef*
G36*
G01*
X134662000Y-92561000D02*
X133562000Y-92561000D01*
G75*
G02*
X133312000Y-92311000I0J250000D01*
G01*
X133312000Y-89311000D01*
G75*
G02*
X133562000Y-89061000I250000J0D01*
G01*
X134662000Y-89061000D01*
G75*
G02*
X134912000Y-89311000I0J-250000D01*
G01*
X134912000Y-92311000D01*
G75*
G02*
X134662000Y-92561000I-250000J0D01*
G01*
G37*
G04 #@! TD.AperFunction*
G04 #@! TA.AperFunction,SMDPad,CuDef*
G36*
G01*
X134662000Y-86961000D02*
X133562000Y-86961000D01*
G75*
G02*
X133312000Y-86711000I0J250000D01*
G01*
X133312000Y-83711000D01*
G75*
G02*
X133562000Y-83461000I250000J0D01*
G01*
X134662000Y-83461000D01*
G75*
G02*
X134912000Y-83711000I0J-250000D01*
G01*
X134912000Y-86711000D01*
G75*
G02*
X134662000Y-86961000I-250000J0D01*
G01*
G37*
G04 #@! TD.AperFunction*
G04 #@! TA.AperFunction,SMDPad,CuDef*
G36*
G01*
X126407000Y-86961000D02*
X125307000Y-86961000D01*
G75*
G02*
X125057000Y-86711000I0J250000D01*
G01*
X125057000Y-83711000D01*
G75*
G02*
X125307000Y-83461000I250000J0D01*
G01*
X126407000Y-83461000D01*
G75*
G02*
X126657000Y-83711000I0J-250000D01*
G01*
X126657000Y-86711000D01*
G75*
G02*
X126407000Y-86961000I-250000J0D01*
G01*
G37*
G04 #@! TD.AperFunction*
G04 #@! TA.AperFunction,SMDPad,CuDef*
G36*
G01*
X126407000Y-92561000D02*
X125307000Y-92561000D01*
G75*
G02*
X125057000Y-92311000I0J250000D01*
G01*
X125057000Y-89311000D01*
G75*
G02*
X125307000Y-89061000I250000J0D01*
G01*
X126407000Y-89061000D01*
G75*
G02*
X126657000Y-89311000I0J-250000D01*
G01*
X126657000Y-92311000D01*
G75*
G02*
X126407000Y-92561000I-250000J0D01*
G01*
G37*
G04 #@! TD.AperFunction*
D12*
X153797000Y-73342500D03*
X148797000Y-73342500D03*
D13*
X131844800Y-96189800D03*
X127844800Y-96189800D03*
G04 #@! TA.AperFunction,SMDPad,CuDef*
G36*
G01*
X113070800Y-67855800D02*
X111820800Y-67855800D01*
G75*
G02*
X111570800Y-67605800I0J250000D01*
G01*
X111570800Y-66855800D01*
G75*
G02*
X111820800Y-66605800I250000J0D01*
G01*
X113070800Y-66605800D01*
G75*
G02*
X113320800Y-66855800I0J-250000D01*
G01*
X113320800Y-67605800D01*
G75*
G02*
X113070800Y-67855800I-250000J0D01*
G01*
G37*
G04 #@! TD.AperFunction*
G04 #@! TA.AperFunction,SMDPad,CuDef*
G36*
G01*
X113070800Y-70655800D02*
X111820800Y-70655800D01*
G75*
G02*
X111570800Y-70405800I0J250000D01*
G01*
X111570800Y-69655800D01*
G75*
G02*
X111820800Y-69405800I250000J0D01*
G01*
X113070800Y-69405800D01*
G75*
G02*
X113320800Y-69655800I0J-250000D01*
G01*
X113320800Y-70405800D01*
G75*
G02*
X113070800Y-70655800I-250000J0D01*
G01*
G37*
G04 #@! TD.AperFunction*
G04 #@! TA.AperFunction,SMDPad,CuDef*
G36*
G01*
X150705400Y-76607350D02*
X150705400Y-77519850D01*
G75*
G02*
X150461650Y-77763600I-243750J0D01*
G01*
X149974150Y-77763600D01*
G75*
G02*
X149730400Y-77519850I0J243750D01*
G01*
X149730400Y-76607350D01*
G75*
G02*
X149974150Y-76363600I243750J0D01*
G01*
X150461650Y-76363600D01*
G75*
G02*
X150705400Y-76607350I0J-243750D01*
G01*
G37*
G04 #@! TD.AperFunction*
G04 #@! TA.AperFunction,SMDPad,CuDef*
G36*
G01*
X152580400Y-76607350D02*
X152580400Y-77519850D01*
G75*
G02*
X152336650Y-77763600I-243750J0D01*
G01*
X151849150Y-77763600D01*
G75*
G02*
X151605400Y-77519850I0J243750D01*
G01*
X151605400Y-76607350D01*
G75*
G02*
X151849150Y-76363600I243750J0D01*
G01*
X152336650Y-76363600D01*
G75*
G02*
X152580400Y-76607350I0J-243750D01*
G01*
G37*
G04 #@! TD.AperFunction*
G04 #@! TA.AperFunction,SMDPad,CuDef*
G36*
G01*
X173271600Y-66496250D02*
X173271600Y-65583750D01*
G75*
G02*
X173515350Y-65340000I243750J0D01*
G01*
X174002850Y-65340000D01*
G75*
G02*
X174246600Y-65583750I0J-243750D01*
G01*
X174246600Y-66496250D01*
G75*
G02*
X174002850Y-66740000I-243750J0D01*
G01*
X173515350Y-66740000D01*
G75*
G02*
X173271600Y-66496250I0J243750D01*
G01*
G37*
G04 #@! TD.AperFunction*
G04 #@! TA.AperFunction,SMDPad,CuDef*
G36*
G01*
X171396600Y-66496250D02*
X171396600Y-65583750D01*
G75*
G02*
X171640350Y-65340000I243750J0D01*
G01*
X172127850Y-65340000D01*
G75*
G02*
X172371600Y-65583750I0J-243750D01*
G01*
X172371600Y-66496250D01*
G75*
G02*
X172127850Y-66740000I-243750J0D01*
G01*
X171640350Y-66740000D01*
G75*
G02*
X171396600Y-66496250I0J243750D01*
G01*
G37*
G04 #@! TD.AperFunction*
G04 #@! TA.AperFunction,SMDPad,CuDef*
G36*
G01*
X138902500Y-66028250D02*
X138902500Y-66940750D01*
G75*
G02*
X138658750Y-67184500I-243750J0D01*
G01*
X138171250Y-67184500D01*
G75*
G02*
X137927500Y-66940750I0J243750D01*
G01*
X137927500Y-66028250D01*
G75*
G02*
X138171250Y-65784500I243750J0D01*
G01*
X138658750Y-65784500D01*
G75*
G02*
X138902500Y-66028250I0J-243750D01*
G01*
G37*
G04 #@! TD.AperFunction*
G04 #@! TA.AperFunction,SMDPad,CuDef*
G36*
G01*
X137027500Y-66028250D02*
X137027500Y-66940750D01*
G75*
G02*
X136783750Y-67184500I-243750J0D01*
G01*
X136296250Y-67184500D01*
G75*
G02*
X136052500Y-66940750I0J243750D01*
G01*
X136052500Y-66028250D01*
G75*
G02*
X136296250Y-65784500I243750J0D01*
G01*
X136783750Y-65784500D01*
G75*
G02*
X137027500Y-66028250I0J-243750D01*
G01*
G37*
G04 #@! TD.AperFunction*
D14*
X117900500Y-63067000D03*
X117900500Y-62267000D03*
X117900500Y-57367000D03*
X117900500Y-56567000D03*
X117900500Y-56567000D03*
X117900500Y-57367000D03*
X117900500Y-62267000D03*
X117900500Y-63067000D03*
D15*
X117900500Y-58067000D03*
X117900500Y-58567000D03*
X117900500Y-59067000D03*
X117900500Y-60067000D03*
X117900500Y-60567000D03*
X117900500Y-61067000D03*
X117900500Y-61567000D03*
X117900500Y-59567000D03*
D16*
X116985500Y-64137000D03*
X116985500Y-55497000D03*
D17*
X112805500Y-55497000D03*
X112805500Y-64137000D03*
D18*
X175577500Y-74168000D03*
X173037500Y-74168000D03*
X175577500Y-71628000D03*
X173037500Y-71628000D03*
X175577500Y-69088000D03*
D19*
X173037500Y-69088000D03*
D20*
X173228000Y-80010000D03*
D21*
X140208000Y-87630000D03*
X170688000Y-80010000D03*
X142748000Y-87630000D03*
X168148000Y-80010000D03*
X145288000Y-87630000D03*
X165608000Y-80010000D03*
X147828000Y-87630000D03*
X163068000Y-80010000D03*
X150368000Y-87630000D03*
X160528000Y-80010000D03*
X152908000Y-87630000D03*
X157988000Y-80010000D03*
X155448000Y-87630000D03*
X155448000Y-80010000D03*
X157988000Y-87630000D03*
X152908000Y-80010000D03*
X160528000Y-87630000D03*
X150368000Y-80010000D03*
X163068000Y-87630000D03*
X147828000Y-80010000D03*
X165608000Y-87630000D03*
X145288000Y-80010000D03*
X168148000Y-87630000D03*
X142748000Y-80010000D03*
X170688000Y-87630000D03*
X140208000Y-80010000D03*
X173228000Y-87630000D03*
G04 #@! TA.AperFunction,SMDPad,CuDef*
G36*
G01*
X150633750Y-70322500D02*
X149721250Y-70322500D01*
G75*
G02*
X149477500Y-70078750I0J243750D01*
G01*
X149477500Y-69591250D01*
G75*
G02*
X149721250Y-69347500I243750J0D01*
G01*
X150633750Y-69347500D01*
G75*
G02*
X150877500Y-69591250I0J-243750D01*
G01*
X150877500Y-70078750D01*
G75*
G02*
X150633750Y-70322500I-243750J0D01*
G01*
G37*
G04 #@! TD.AperFunction*
G04 #@! TA.AperFunction,SMDPad,CuDef*
G36*
G01*
X150633750Y-68447500D02*
X149721250Y-68447500D01*
G75*
G02*
X149477500Y-68203750I0J243750D01*
G01*
X149477500Y-67716250D01*
G75*
G02*
X149721250Y-67472500I243750J0D01*
G01*
X150633750Y-67472500D01*
G75*
G02*
X150877500Y-67716250I0J-243750D01*
G01*
X150877500Y-68203750D01*
G75*
G02*
X150633750Y-68447500I-243750J0D01*
G01*
G37*
G04 #@! TD.AperFunction*
G04 #@! TA.AperFunction,SMDPad,CuDef*
G36*
G01*
X153467750Y-69347500D02*
X154380250Y-69347500D01*
G75*
G02*
X154624000Y-69591250I0J-243750D01*
G01*
X154624000Y-70078750D01*
G75*
G02*
X154380250Y-70322500I-243750J0D01*
G01*
X153467750Y-70322500D01*
G75*
G02*
X153224000Y-70078750I0J243750D01*
G01*
X153224000Y-69591250D01*
G75*
G02*
X153467750Y-69347500I243750J0D01*
G01*
G37*
G04 #@! TD.AperFunction*
G04 #@! TA.AperFunction,SMDPad,CuDef*
G36*
G01*
X153467750Y-67472500D02*
X154380250Y-67472500D01*
G75*
G02*
X154624000Y-67716250I0J-243750D01*
G01*
X154624000Y-68203750D01*
G75*
G02*
X154380250Y-68447500I-243750J0D01*
G01*
X153467750Y-68447500D01*
G75*
G02*
X153224000Y-68203750I0J243750D01*
G01*
X153224000Y-67716250D01*
G75*
G02*
X153467750Y-67472500I243750J0D01*
G01*
G37*
G04 #@! TD.AperFunction*
G04 #@! TA.AperFunction,SMDPad,CuDef*
G36*
G01*
X138902500Y-63932750D02*
X138902500Y-64845250D01*
G75*
G02*
X138658750Y-65089000I-243750J0D01*
G01*
X138171250Y-65089000D01*
G75*
G02*
X137927500Y-64845250I0J243750D01*
G01*
X137927500Y-63932750D01*
G75*
G02*
X138171250Y-63689000I243750J0D01*
G01*
X138658750Y-63689000D01*
G75*
G02*
X138902500Y-63932750I0J-243750D01*
G01*
G37*
G04 #@! TD.AperFunction*
G04 #@! TA.AperFunction,SMDPad,CuDef*
G36*
G01*
X137027500Y-63932750D02*
X137027500Y-64845250D01*
G75*
G02*
X136783750Y-65089000I-243750J0D01*
G01*
X136296250Y-65089000D01*
G75*
G02*
X136052500Y-64845250I0J243750D01*
G01*
X136052500Y-63932750D01*
G75*
G02*
X136296250Y-63689000I243750J0D01*
G01*
X136783750Y-63689000D01*
G75*
G02*
X137027500Y-63932750I0J-243750D01*
G01*
G37*
G04 #@! TD.AperFunction*
G04 #@! TA.AperFunction,SMDPad,CuDef*
G36*
G01*
X136052500Y-69480750D02*
X136052500Y-68568250D01*
G75*
G02*
X136296250Y-68324500I243750J0D01*
G01*
X136783750Y-68324500D01*
G75*
G02*
X137027500Y-68568250I0J-243750D01*
G01*
X137027500Y-69480750D01*
G75*
G02*
X136783750Y-69724500I-243750J0D01*
G01*
X136296250Y-69724500D01*
G75*
G02*
X136052500Y-69480750I0J243750D01*
G01*
G37*
G04 #@! TD.AperFunction*
G04 #@! TA.AperFunction,SMDPad,CuDef*
G36*
G01*
X137927500Y-69480750D02*
X137927500Y-68568250D01*
G75*
G02*
X138171250Y-68324500I243750J0D01*
G01*
X138658750Y-68324500D01*
G75*
G02*
X138902500Y-68568250I0J-243750D01*
G01*
X138902500Y-69480750D01*
G75*
G02*
X138658750Y-69724500I-243750J0D01*
G01*
X138171250Y-69724500D01*
G75*
G02*
X137927500Y-69480750I0J243750D01*
G01*
G37*
G04 #@! TD.AperFunction*
G04 #@! TA.AperFunction,SMDPad,CuDef*
G36*
G01*
X136052500Y-58431750D02*
X136052500Y-57519250D01*
G75*
G02*
X136296250Y-57275500I243750J0D01*
G01*
X136783750Y-57275500D01*
G75*
G02*
X137027500Y-57519250I0J-243750D01*
G01*
X137027500Y-58431750D01*
G75*
G02*
X136783750Y-58675500I-243750J0D01*
G01*
X136296250Y-58675500D01*
G75*
G02*
X136052500Y-58431750I0J243750D01*
G01*
G37*
G04 #@! TD.AperFunction*
G04 #@! TA.AperFunction,SMDPad,CuDef*
G36*
G01*
X137927500Y-58431750D02*
X137927500Y-57519250D01*
G75*
G02*
X138171250Y-57275500I243750J0D01*
G01*
X138658750Y-57275500D01*
G75*
G02*
X138902500Y-57519250I0J-243750D01*
G01*
X138902500Y-58431750D01*
G75*
G02*
X138658750Y-58675500I-243750J0D01*
G01*
X138171250Y-58675500D01*
G75*
G02*
X137927500Y-58431750I0J243750D01*
G01*
G37*
G04 #@! TD.AperFunction*
G04 #@! TA.AperFunction,SMDPad,CuDef*
G36*
G01*
X137927500Y-56209250D02*
X137927500Y-55296750D01*
G75*
G02*
X138171250Y-55053000I243750J0D01*
G01*
X138658750Y-55053000D01*
G75*
G02*
X138902500Y-55296750I0J-243750D01*
G01*
X138902500Y-56209250D01*
G75*
G02*
X138658750Y-56453000I-243750J0D01*
G01*
X138171250Y-56453000D01*
G75*
G02*
X137927500Y-56209250I0J243750D01*
G01*
G37*
G04 #@! TD.AperFunction*
G04 #@! TA.AperFunction,SMDPad,CuDef*
G36*
G01*
X136052500Y-56209250D02*
X136052500Y-55296750D01*
G75*
G02*
X136296250Y-55053000I243750J0D01*
G01*
X136783750Y-55053000D01*
G75*
G02*
X137027500Y-55296750I0J-243750D01*
G01*
X137027500Y-56209250D01*
G75*
G02*
X136783750Y-56453000I-243750J0D01*
G01*
X136296250Y-56453000D01*
G75*
G02*
X136052500Y-56209250I0J243750D01*
G01*
G37*
G04 #@! TD.AperFunction*
G04 #@! TA.AperFunction,SMDPad,CuDef*
G36*
G01*
X131676000Y-61190000D02*
X131976000Y-61190000D01*
G75*
G02*
X132126000Y-61340000I0J-150000D01*
G01*
X132126000Y-62990000D01*
G75*
G02*
X131976000Y-63140000I-150000J0D01*
G01*
X131676000Y-63140000D01*
G75*
G02*
X131526000Y-62990000I0J150000D01*
G01*
X131526000Y-61340000D01*
G75*
G02*
X131676000Y-61190000I150000J0D01*
G01*
G37*
G04 #@! TD.AperFunction*
G04 #@! TA.AperFunction,SMDPad,CuDef*
G36*
G01*
X130406000Y-61190000D02*
X130706000Y-61190000D01*
G75*
G02*
X130856000Y-61340000I0J-150000D01*
G01*
X130856000Y-62990000D01*
G75*
G02*
X130706000Y-63140000I-150000J0D01*
G01*
X130406000Y-63140000D01*
G75*
G02*
X130256000Y-62990000I0J150000D01*
G01*
X130256000Y-61340000D01*
G75*
G02*
X130406000Y-61190000I150000J0D01*
G01*
G37*
G04 #@! TD.AperFunction*
G04 #@! TA.AperFunction,SMDPad,CuDef*
G36*
G01*
X129136000Y-61190000D02*
X129436000Y-61190000D01*
G75*
G02*
X129586000Y-61340000I0J-150000D01*
G01*
X129586000Y-62990000D01*
G75*
G02*
X129436000Y-63140000I-150000J0D01*
G01*
X129136000Y-63140000D01*
G75*
G02*
X128986000Y-62990000I0J150000D01*
G01*
X128986000Y-61340000D01*
G75*
G02*
X129136000Y-61190000I150000J0D01*
G01*
G37*
G04 #@! TD.AperFunction*
G04 #@! TA.AperFunction,SMDPad,CuDef*
G36*
G01*
X127866000Y-61190000D02*
X128166000Y-61190000D01*
G75*
G02*
X128316000Y-61340000I0J-150000D01*
G01*
X128316000Y-62990000D01*
G75*
G02*
X128166000Y-63140000I-150000J0D01*
G01*
X127866000Y-63140000D01*
G75*
G02*
X127716000Y-62990000I0J150000D01*
G01*
X127716000Y-61340000D01*
G75*
G02*
X127866000Y-61190000I150000J0D01*
G01*
G37*
G04 #@! TD.AperFunction*
G04 #@! TA.AperFunction,SMDPad,CuDef*
G36*
G01*
X126596000Y-61190000D02*
X126896000Y-61190000D01*
G75*
G02*
X127046000Y-61340000I0J-150000D01*
G01*
X127046000Y-62990000D01*
G75*
G02*
X126896000Y-63140000I-150000J0D01*
G01*
X126596000Y-63140000D01*
G75*
G02*
X126446000Y-62990000I0J150000D01*
G01*
X126446000Y-61340000D01*
G75*
G02*
X126596000Y-61190000I150000J0D01*
G01*
G37*
G04 #@! TD.AperFunction*
G04 #@! TA.AperFunction,SMDPad,CuDef*
G36*
G01*
X125326000Y-61190000D02*
X125626000Y-61190000D01*
G75*
G02*
X125776000Y-61340000I0J-150000D01*
G01*
X125776000Y-62990000D01*
G75*
G02*
X125626000Y-63140000I-150000J0D01*
G01*
X125326000Y-63140000D01*
G75*
G02*
X125176000Y-62990000I0J150000D01*
G01*
X125176000Y-61340000D01*
G75*
G02*
X125326000Y-61190000I150000J0D01*
G01*
G37*
G04 #@! TD.AperFunction*
G04 #@! TA.AperFunction,SMDPad,CuDef*
G36*
G01*
X124056000Y-61190000D02*
X124356000Y-61190000D01*
G75*
G02*
X124506000Y-61340000I0J-150000D01*
G01*
X124506000Y-62990000D01*
G75*
G02*
X124356000Y-63140000I-150000J0D01*
G01*
X124056000Y-63140000D01*
G75*
G02*
X123906000Y-62990000I0J150000D01*
G01*
X123906000Y-61340000D01*
G75*
G02*
X124056000Y-61190000I150000J0D01*
G01*
G37*
G04 #@! TD.AperFunction*
G04 #@! TA.AperFunction,SMDPad,CuDef*
G36*
G01*
X122786000Y-61190000D02*
X123086000Y-61190000D01*
G75*
G02*
X123236000Y-61340000I0J-150000D01*
G01*
X123236000Y-62990000D01*
G75*
G02*
X123086000Y-63140000I-150000J0D01*
G01*
X122786000Y-63140000D01*
G75*
G02*
X122636000Y-62990000I0J150000D01*
G01*
X122636000Y-61340000D01*
G75*
G02*
X122786000Y-61190000I150000J0D01*
G01*
G37*
G04 #@! TD.AperFunction*
G04 #@! TA.AperFunction,SMDPad,CuDef*
G36*
G01*
X122786000Y-56240000D02*
X123086000Y-56240000D01*
G75*
G02*
X123236000Y-56390000I0J-150000D01*
G01*
X123236000Y-58040000D01*
G75*
G02*
X123086000Y-58190000I-150000J0D01*
G01*
X122786000Y-58190000D01*
G75*
G02*
X122636000Y-58040000I0J150000D01*
G01*
X122636000Y-56390000D01*
G75*
G02*
X122786000Y-56240000I150000J0D01*
G01*
G37*
G04 #@! TD.AperFunction*
G04 #@! TA.AperFunction,SMDPad,CuDef*
G36*
G01*
X124056000Y-56240000D02*
X124356000Y-56240000D01*
G75*
G02*
X124506000Y-56390000I0J-150000D01*
G01*
X124506000Y-58040000D01*
G75*
G02*
X124356000Y-58190000I-150000J0D01*
G01*
X124056000Y-58190000D01*
G75*
G02*
X123906000Y-58040000I0J150000D01*
G01*
X123906000Y-56390000D01*
G75*
G02*
X124056000Y-56240000I150000J0D01*
G01*
G37*
G04 #@! TD.AperFunction*
G04 #@! TA.AperFunction,SMDPad,CuDef*
G36*
G01*
X125326000Y-56240000D02*
X125626000Y-56240000D01*
G75*
G02*
X125776000Y-56390000I0J-150000D01*
G01*
X125776000Y-58040000D01*
G75*
G02*
X125626000Y-58190000I-150000J0D01*
G01*
X125326000Y-58190000D01*
G75*
G02*
X125176000Y-58040000I0J150000D01*
G01*
X125176000Y-56390000D01*
G75*
G02*
X125326000Y-56240000I150000J0D01*
G01*
G37*
G04 #@! TD.AperFunction*
G04 #@! TA.AperFunction,SMDPad,CuDef*
G36*
G01*
X126596000Y-56240000D02*
X126896000Y-56240000D01*
G75*
G02*
X127046000Y-56390000I0J-150000D01*
G01*
X127046000Y-58040000D01*
G75*
G02*
X126896000Y-58190000I-150000J0D01*
G01*
X126596000Y-58190000D01*
G75*
G02*
X126446000Y-58040000I0J150000D01*
G01*
X126446000Y-56390000D01*
G75*
G02*
X126596000Y-56240000I150000J0D01*
G01*
G37*
G04 #@! TD.AperFunction*
G04 #@! TA.AperFunction,SMDPad,CuDef*
G36*
G01*
X127866000Y-56240000D02*
X128166000Y-56240000D01*
G75*
G02*
X128316000Y-56390000I0J-150000D01*
G01*
X128316000Y-58040000D01*
G75*
G02*
X128166000Y-58190000I-150000J0D01*
G01*
X127866000Y-58190000D01*
G75*
G02*
X127716000Y-58040000I0J150000D01*
G01*
X127716000Y-56390000D01*
G75*
G02*
X127866000Y-56240000I150000J0D01*
G01*
G37*
G04 #@! TD.AperFunction*
G04 #@! TA.AperFunction,SMDPad,CuDef*
G36*
G01*
X129136000Y-56240000D02*
X129436000Y-56240000D01*
G75*
G02*
X129586000Y-56390000I0J-150000D01*
G01*
X129586000Y-58040000D01*
G75*
G02*
X129436000Y-58190000I-150000J0D01*
G01*
X129136000Y-58190000D01*
G75*
G02*
X128986000Y-58040000I0J150000D01*
G01*
X128986000Y-56390000D01*
G75*
G02*
X129136000Y-56240000I150000J0D01*
G01*
G37*
G04 #@! TD.AperFunction*
G04 #@! TA.AperFunction,SMDPad,CuDef*
G36*
G01*
X130406000Y-56240000D02*
X130706000Y-56240000D01*
G75*
G02*
X130856000Y-56390000I0J-150000D01*
G01*
X130856000Y-58040000D01*
G75*
G02*
X130706000Y-58190000I-150000J0D01*
G01*
X130406000Y-58190000D01*
G75*
G02*
X130256000Y-58040000I0J150000D01*
G01*
X130256000Y-56390000D01*
G75*
G02*
X130406000Y-56240000I150000J0D01*
G01*
G37*
G04 #@! TD.AperFunction*
G04 #@! TA.AperFunction,SMDPad,CuDef*
G36*
G01*
X131676000Y-56240000D02*
X131976000Y-56240000D01*
G75*
G02*
X132126000Y-56390000I0J-150000D01*
G01*
X132126000Y-58040000D01*
G75*
G02*
X131976000Y-58190000I-150000J0D01*
G01*
X131676000Y-58190000D01*
G75*
G02*
X131526000Y-58040000I0J150000D01*
G01*
X131526000Y-56390000D01*
G75*
G02*
X131676000Y-56240000I150000J0D01*
G01*
G37*
G04 #@! TD.AperFunction*
G04 #@! TA.AperFunction,SMDPad,CuDef*
G36*
G01*
X128702750Y-52423000D02*
X129615250Y-52423000D01*
G75*
G02*
X129859000Y-52666750I0J-243750D01*
G01*
X129859000Y-53154250D01*
G75*
G02*
X129615250Y-53398000I-243750J0D01*
G01*
X128702750Y-53398000D01*
G75*
G02*
X128459000Y-53154250I0J243750D01*
G01*
X128459000Y-52666750D01*
G75*
G02*
X128702750Y-52423000I243750J0D01*
G01*
G37*
G04 #@! TD.AperFunction*
G04 #@! TA.AperFunction,SMDPad,CuDef*
G36*
G01*
X128702750Y-54298000D02*
X129615250Y-54298000D01*
G75*
G02*
X129859000Y-54541750I0J-243750D01*
G01*
X129859000Y-55029250D01*
G75*
G02*
X129615250Y-55273000I-243750J0D01*
G01*
X128702750Y-55273000D01*
G75*
G02*
X128459000Y-55029250I0J243750D01*
G01*
X128459000Y-54541750D01*
G75*
G02*
X128702750Y-54298000I243750J0D01*
G01*
G37*
G04 #@! TD.AperFunction*
G04 #@! TA.AperFunction,SMDPad,CuDef*
G36*
G01*
X136004000Y-71512750D02*
X136004000Y-70600250D01*
G75*
G02*
X136247750Y-70356500I243750J0D01*
G01*
X136735250Y-70356500D01*
G75*
G02*
X136979000Y-70600250I0J-243750D01*
G01*
X136979000Y-71512750D01*
G75*
G02*
X136735250Y-71756500I-243750J0D01*
G01*
X136247750Y-71756500D01*
G75*
G02*
X136004000Y-71512750I0J243750D01*
G01*
G37*
G04 #@! TD.AperFunction*
G04 #@! TA.AperFunction,SMDPad,CuDef*
G36*
G01*
X137879000Y-71512750D02*
X137879000Y-70600250D01*
G75*
G02*
X138122750Y-70356500I243750J0D01*
G01*
X138610250Y-70356500D01*
G75*
G02*
X138854000Y-70600250I0J-243750D01*
G01*
X138854000Y-71512750D01*
G75*
G02*
X138610250Y-71756500I-243750J0D01*
G01*
X138122750Y-71756500D01*
G75*
G02*
X137879000Y-71512750I0J243750D01*
G01*
G37*
G04 #@! TD.AperFunction*
G04 #@! TA.AperFunction,SMDPad,CuDef*
G36*
G01*
X140196250Y-59979500D02*
X141108750Y-59979500D01*
G75*
G02*
X141352500Y-60223250I0J-243750D01*
G01*
X141352500Y-60710750D01*
G75*
G02*
X141108750Y-60954500I-243750J0D01*
G01*
X140196250Y-60954500D01*
G75*
G02*
X139952500Y-60710750I0J243750D01*
G01*
X139952500Y-60223250D01*
G75*
G02*
X140196250Y-59979500I243750J0D01*
G01*
G37*
G04 #@! TD.AperFunction*
G04 #@! TA.AperFunction,SMDPad,CuDef*
G36*
G01*
X140196250Y-61854500D02*
X141108750Y-61854500D01*
G75*
G02*
X141352500Y-62098250I0J-243750D01*
G01*
X141352500Y-62585750D01*
G75*
G02*
X141108750Y-62829500I-243750J0D01*
G01*
X140196250Y-62829500D01*
G75*
G02*
X139952500Y-62585750I0J243750D01*
G01*
X139952500Y-62098250D01*
G75*
G02*
X140196250Y-61854500I243750J0D01*
G01*
G37*
G04 #@! TD.AperFunction*
G04 #@! TA.AperFunction,SMDPad,CuDef*
G36*
G01*
X130734750Y-52423000D02*
X131647250Y-52423000D01*
G75*
G02*
X131891000Y-52666750I0J-243750D01*
G01*
X131891000Y-53154250D01*
G75*
G02*
X131647250Y-53398000I-243750J0D01*
G01*
X130734750Y-53398000D01*
G75*
G02*
X130491000Y-53154250I0J243750D01*
G01*
X130491000Y-52666750D01*
G75*
G02*
X130734750Y-52423000I243750J0D01*
G01*
G37*
G04 #@! TD.AperFunction*
G04 #@! TA.AperFunction,SMDPad,CuDef*
G36*
G01*
X130734750Y-54298000D02*
X131647250Y-54298000D01*
G75*
G02*
X131891000Y-54541750I0J-243750D01*
G01*
X131891000Y-55029250D01*
G75*
G02*
X131647250Y-55273000I-243750J0D01*
G01*
X130734750Y-55273000D01*
G75*
G02*
X130491000Y-55029250I0J243750D01*
G01*
X130491000Y-54541750D01*
G75*
G02*
X130734750Y-54298000I243750J0D01*
G01*
G37*
G04 #@! TD.AperFunction*
G04 #@! TA.AperFunction,SMDPad,CuDef*
G36*
G01*
X124869000Y-78093250D02*
X124869000Y-79005750D01*
G75*
G02*
X124625250Y-79249500I-243750J0D01*
G01*
X124137750Y-79249500D01*
G75*
G02*
X123894000Y-79005750I0J243750D01*
G01*
X123894000Y-78093250D01*
G75*
G02*
X124137750Y-77849500I243750J0D01*
G01*
X124625250Y-77849500D01*
G75*
G02*
X124869000Y-78093250I0J-243750D01*
G01*
G37*
G04 #@! TD.AperFunction*
G04 #@! TA.AperFunction,SMDPad,CuDef*
G36*
G01*
X122994000Y-78093250D02*
X122994000Y-79005750D01*
G75*
G02*
X122750250Y-79249500I-243750J0D01*
G01*
X122262750Y-79249500D01*
G75*
G02*
X122019000Y-79005750I0J243750D01*
G01*
X122019000Y-78093250D01*
G75*
G02*
X122262750Y-77849500I243750J0D01*
G01*
X122750250Y-77849500D01*
G75*
G02*
X122994000Y-78093250I0J-243750D01*
G01*
G37*
G04 #@! TD.AperFunction*
G04 #@! TA.AperFunction,SMDPad,CuDef*
G36*
G01*
X143267750Y-62829500D02*
X142355250Y-62829500D01*
G75*
G02*
X142111500Y-62585750I0J243750D01*
G01*
X142111500Y-62098250D01*
G75*
G02*
X142355250Y-61854500I243750J0D01*
G01*
X143267750Y-61854500D01*
G75*
G02*
X143511500Y-62098250I0J-243750D01*
G01*
X143511500Y-62585750D01*
G75*
G02*
X143267750Y-62829500I-243750J0D01*
G01*
G37*
G04 #@! TD.AperFunction*
G04 #@! TA.AperFunction,SMDPad,CuDef*
G36*
G01*
X143267750Y-60954500D02*
X142355250Y-60954500D01*
G75*
G02*
X142111500Y-60710750I0J243750D01*
G01*
X142111500Y-60223250D01*
G75*
G02*
X142355250Y-59979500I243750J0D01*
G01*
X143267750Y-59979500D01*
G75*
G02*
X143511500Y-60223250I0J-243750D01*
G01*
X143511500Y-60710750D01*
G75*
G02*
X143267750Y-60954500I-243750J0D01*
G01*
G37*
G04 #@! TD.AperFunction*
G04 #@! TA.AperFunction,SMDPad,CuDef*
G36*
G01*
X122019000Y-81037750D02*
X122019000Y-80125250D01*
G75*
G02*
X122262750Y-79881500I243750J0D01*
G01*
X122750250Y-79881500D01*
G75*
G02*
X122994000Y-80125250I0J-243750D01*
G01*
X122994000Y-81037750D01*
G75*
G02*
X122750250Y-81281500I-243750J0D01*
G01*
X122262750Y-81281500D01*
G75*
G02*
X122019000Y-81037750I0J243750D01*
G01*
G37*
G04 #@! TD.AperFunction*
G04 #@! TA.AperFunction,SMDPad,CuDef*
G36*
G01*
X123894000Y-81037750D02*
X123894000Y-80125250D01*
G75*
G02*
X124137750Y-79881500I243750J0D01*
G01*
X124625250Y-79881500D01*
G75*
G02*
X124869000Y-80125250I0J-243750D01*
G01*
X124869000Y-81037750D01*
G75*
G02*
X124625250Y-81281500I-243750J0D01*
G01*
X124137750Y-81281500D01*
G75*
G02*
X123894000Y-81037750I0J243750D01*
G01*
G37*
G04 #@! TD.AperFunction*
G04 #@! TA.AperFunction,SMDPad,CuDef*
G36*
G01*
X135989000Y-73862250D02*
X135989000Y-72949750D01*
G75*
G02*
X136232750Y-72706000I243750J0D01*
G01*
X136720250Y-72706000D01*
G75*
G02*
X136964000Y-72949750I0J-243750D01*
G01*
X136964000Y-73862250D01*
G75*
G02*
X136720250Y-74106000I-243750J0D01*
G01*
X136232750Y-74106000D01*
G75*
G02*
X135989000Y-73862250I0J243750D01*
G01*
G37*
G04 #@! TD.AperFunction*
G04 #@! TA.AperFunction,SMDPad,CuDef*
G36*
G01*
X137864000Y-73862250D02*
X137864000Y-72949750D01*
G75*
G02*
X138107750Y-72706000I243750J0D01*
G01*
X138595250Y-72706000D01*
G75*
G02*
X138839000Y-72949750I0J-243750D01*
G01*
X138839000Y-73862250D01*
G75*
G02*
X138595250Y-74106000I-243750J0D01*
G01*
X138107750Y-74106000D01*
G75*
G02*
X137864000Y-73862250I0J243750D01*
G01*
G37*
G04 #@! TD.AperFunction*
G04 #@! TA.AperFunction,SMDPad,CuDef*
G36*
G01*
X138124250Y-83213000D02*
X137211750Y-83213000D01*
G75*
G02*
X136968000Y-82969250I0J243750D01*
G01*
X136968000Y-82481750D01*
G75*
G02*
X137211750Y-82238000I243750J0D01*
G01*
X138124250Y-82238000D01*
G75*
G02*
X138368000Y-82481750I0J-243750D01*
G01*
X138368000Y-82969250D01*
G75*
G02*
X138124250Y-83213000I-243750J0D01*
G01*
G37*
G04 #@! TD.AperFunction*
G04 #@! TA.AperFunction,SMDPad,CuDef*
G36*
G01*
X138124250Y-81338000D02*
X137211750Y-81338000D01*
G75*
G02*
X136968000Y-81094250I0J243750D01*
G01*
X136968000Y-80606750D01*
G75*
G02*
X137211750Y-80363000I243750J0D01*
G01*
X138124250Y-80363000D01*
G75*
G02*
X138368000Y-80606750I0J-243750D01*
G01*
X138368000Y-81094250D01*
G75*
G02*
X138124250Y-81338000I-243750J0D01*
G01*
G37*
G04 #@! TD.AperFunction*
G04 #@! TA.AperFunction,SMDPad,CuDef*
G36*
G01*
X133628450Y-67183060D02*
X132715950Y-67183060D01*
G75*
G02*
X132472200Y-66939310I0J243750D01*
G01*
X132472200Y-66451810D01*
G75*
G02*
X132715950Y-66208060I243750J0D01*
G01*
X133628450Y-66208060D01*
G75*
G02*
X133872200Y-66451810I0J-243750D01*
G01*
X133872200Y-66939310D01*
G75*
G02*
X133628450Y-67183060I-243750J0D01*
G01*
G37*
G04 #@! TD.AperFunction*
G04 #@! TA.AperFunction,SMDPad,CuDef*
G36*
G01*
X133628450Y-65308060D02*
X132715950Y-65308060D01*
G75*
G02*
X132472200Y-65064310I0J243750D01*
G01*
X132472200Y-64576810D01*
G75*
G02*
X132715950Y-64333060I243750J0D01*
G01*
X133628450Y-64333060D01*
G75*
G02*
X133872200Y-64576810I0J-243750D01*
G01*
X133872200Y-65064310D01*
G75*
G02*
X133628450Y-65308060I-243750J0D01*
G01*
G37*
G04 #@! TD.AperFunction*
G04 #@! TA.AperFunction,SMDPad,CuDef*
G36*
G01*
X124916250Y-71592500D02*
X124003750Y-71592500D01*
G75*
G02*
X123760000Y-71348750I0J243750D01*
G01*
X123760000Y-70861250D01*
G75*
G02*
X124003750Y-70617500I243750J0D01*
G01*
X124916250Y-70617500D01*
G75*
G02*
X125160000Y-70861250I0J-243750D01*
G01*
X125160000Y-71348750D01*
G75*
G02*
X124916250Y-71592500I-243750J0D01*
G01*
G37*
G04 #@! TD.AperFunction*
G04 #@! TA.AperFunction,SMDPad,CuDef*
G36*
G01*
X124916250Y-69717500D02*
X124003750Y-69717500D01*
G75*
G02*
X123760000Y-69473750I0J243750D01*
G01*
X123760000Y-68986250D01*
G75*
G02*
X124003750Y-68742500I243750J0D01*
G01*
X124916250Y-68742500D01*
G75*
G02*
X125160000Y-68986250I0J-243750D01*
G01*
X125160000Y-69473750D01*
G75*
G02*
X124916250Y-69717500I-243750J0D01*
G01*
G37*
G04 #@! TD.AperFunction*
G04 #@! TA.AperFunction,SMDPad,CuDef*
G36*
G01*
X129080200Y-82345850D02*
X129080200Y-81433350D01*
G75*
G02*
X129323950Y-81189600I243750J0D01*
G01*
X129811450Y-81189600D01*
G75*
G02*
X130055200Y-81433350I0J-243750D01*
G01*
X130055200Y-82345850D01*
G75*
G02*
X129811450Y-82589600I-243750J0D01*
G01*
X129323950Y-82589600D01*
G75*
G02*
X129080200Y-82345850I0J243750D01*
G01*
G37*
G04 #@! TD.AperFunction*
G04 #@! TA.AperFunction,SMDPad,CuDef*
G36*
G01*
X130955200Y-82345850D02*
X130955200Y-81433350D01*
G75*
G02*
X131198950Y-81189600I243750J0D01*
G01*
X131686450Y-81189600D01*
G75*
G02*
X131930200Y-81433350I0J-243750D01*
G01*
X131930200Y-82345850D01*
G75*
G02*
X131686450Y-82589600I-243750J0D01*
G01*
X131198950Y-82589600D01*
G75*
G02*
X130955200Y-82345850I0J243750D01*
G01*
G37*
G04 #@! TD.AperFunction*
G04 #@! TA.AperFunction,SMDPad,CuDef*
G36*
G01*
X122019000Y-74497250D02*
X122019000Y-73584750D01*
G75*
G02*
X122262750Y-73341000I243750J0D01*
G01*
X122750250Y-73341000D01*
G75*
G02*
X122994000Y-73584750I0J-243750D01*
G01*
X122994000Y-74497250D01*
G75*
G02*
X122750250Y-74741000I-243750J0D01*
G01*
X122262750Y-74741000D01*
G75*
G02*
X122019000Y-74497250I0J243750D01*
G01*
G37*
G04 #@! TD.AperFunction*
G04 #@! TA.AperFunction,SMDPad,CuDef*
G36*
G01*
X123894000Y-74497250D02*
X123894000Y-73584750D01*
G75*
G02*
X124137750Y-73341000I243750J0D01*
G01*
X124625250Y-73341000D01*
G75*
G02*
X124869000Y-73584750I0J-243750D01*
G01*
X124869000Y-74497250D01*
G75*
G02*
X124625250Y-74741000I-243750J0D01*
G01*
X124137750Y-74741000D01*
G75*
G02*
X123894000Y-74497250I0J243750D01*
G01*
G37*
G04 #@! TD.AperFunction*
G04 #@! TA.AperFunction,SMDPad,CuDef*
G36*
G01*
X122884250Y-71592500D02*
X121971750Y-71592500D01*
G75*
G02*
X121728000Y-71348750I0J243750D01*
G01*
X121728000Y-70861250D01*
G75*
G02*
X121971750Y-70617500I243750J0D01*
G01*
X122884250Y-70617500D01*
G75*
G02*
X123128000Y-70861250I0J-243750D01*
G01*
X123128000Y-71348750D01*
G75*
G02*
X122884250Y-71592500I-243750J0D01*
G01*
G37*
G04 #@! TD.AperFunction*
G04 #@! TA.AperFunction,SMDPad,CuDef*
G36*
G01*
X122884250Y-69717500D02*
X121971750Y-69717500D01*
G75*
G02*
X121728000Y-69473750I0J243750D01*
G01*
X121728000Y-68986250D01*
G75*
G02*
X121971750Y-68742500I243750J0D01*
G01*
X122884250Y-68742500D01*
G75*
G02*
X123128000Y-68986250I0J-243750D01*
G01*
X123128000Y-69473750D01*
G75*
G02*
X122884250Y-69717500I-243750J0D01*
G01*
G37*
G04 #@! TD.AperFunction*
G04 #@! TA.AperFunction,SMDPad,CuDef*
G36*
G01*
X126543750Y-54298000D02*
X127456250Y-54298000D01*
G75*
G02*
X127700000Y-54541750I0J-243750D01*
G01*
X127700000Y-55029250D01*
G75*
G02*
X127456250Y-55273000I-243750J0D01*
G01*
X126543750Y-55273000D01*
G75*
G02*
X126300000Y-55029250I0J243750D01*
G01*
X126300000Y-54541750D01*
G75*
G02*
X126543750Y-54298000I243750J0D01*
G01*
G37*
G04 #@! TD.AperFunction*
G04 #@! TA.AperFunction,SMDPad,CuDef*
G36*
G01*
X126543750Y-52423000D02*
X127456250Y-52423000D01*
G75*
G02*
X127700000Y-52666750I0J-243750D01*
G01*
X127700000Y-53154250D01*
G75*
G02*
X127456250Y-53398000I-243750J0D01*
G01*
X126543750Y-53398000D01*
G75*
G02*
X126300000Y-53154250I0J243750D01*
G01*
X126300000Y-52666750D01*
G75*
G02*
X126543750Y-52423000I243750J0D01*
G01*
G37*
G04 #@! TD.AperFunction*
G04 #@! TA.AperFunction,SMDPad,CuDef*
G36*
G01*
X123894000Y-76592750D02*
X123894000Y-75680250D01*
G75*
G02*
X124137750Y-75436500I243750J0D01*
G01*
X124625250Y-75436500D01*
G75*
G02*
X124869000Y-75680250I0J-243750D01*
G01*
X124869000Y-76592750D01*
G75*
G02*
X124625250Y-76836500I-243750J0D01*
G01*
X124137750Y-76836500D01*
G75*
G02*
X123894000Y-76592750I0J243750D01*
G01*
G37*
G04 #@! TD.AperFunction*
G04 #@! TA.AperFunction,SMDPad,CuDef*
G36*
G01*
X122019000Y-76592750D02*
X122019000Y-75680250D01*
G75*
G02*
X122262750Y-75436500I243750J0D01*
G01*
X122750250Y-75436500D01*
G75*
G02*
X122994000Y-75680250I0J-243750D01*
G01*
X122994000Y-76592750D01*
G75*
G02*
X122750250Y-76836500I-243750J0D01*
G01*
X122262750Y-76836500D01*
G75*
G02*
X122019000Y-76592750I0J243750D01*
G01*
G37*
G04 #@! TD.AperFunction*
D22*
X117475000Y-67453000D03*
X118425000Y-69453000D03*
X116525000Y-69453000D03*
G04 #@! TA.AperFunction,SMDPad,CuDef*
G36*
G01*
X127285000Y-76108500D02*
X127285000Y-75783500D01*
G75*
G02*
X127447500Y-75621000I162500J0D01*
G01*
X129097500Y-75621000D01*
G75*
G02*
X129260000Y-75783500I0J-162500D01*
G01*
X129260000Y-76108500D01*
G75*
G02*
X129097500Y-76271000I-162500J0D01*
G01*
X127447500Y-76271000D01*
G75*
G02*
X127285000Y-76108500I0J162500D01*
G01*
G37*
G04 #@! TD.AperFunction*
G04 #@! TA.AperFunction,SMDPad,CuDef*
G36*
G01*
X127285000Y-77378500D02*
X127285000Y-77053500D01*
G75*
G02*
X127447500Y-76891000I162500J0D01*
G01*
X129097500Y-76891000D01*
G75*
G02*
X129260000Y-77053500I0J-162500D01*
G01*
X129260000Y-77378500D01*
G75*
G02*
X129097500Y-77541000I-162500J0D01*
G01*
X127447500Y-77541000D01*
G75*
G02*
X127285000Y-77378500I0J162500D01*
G01*
G37*
G04 #@! TD.AperFunction*
G04 #@! TA.AperFunction,SMDPad,CuDef*
G36*
G01*
X127285000Y-78648500D02*
X127285000Y-78323500D01*
G75*
G02*
X127447500Y-78161000I162500J0D01*
G01*
X129097500Y-78161000D01*
G75*
G02*
X129260000Y-78323500I0J-162500D01*
G01*
X129260000Y-78648500D01*
G75*
G02*
X129097500Y-78811000I-162500J0D01*
G01*
X127447500Y-78811000D01*
G75*
G02*
X127285000Y-78648500I0J162500D01*
G01*
G37*
G04 #@! TD.AperFunction*
G04 #@! TA.AperFunction,SMDPad,CuDef*
G36*
G01*
X127285000Y-79918500D02*
X127285000Y-79593500D01*
G75*
G02*
X127447500Y-79431000I162500J0D01*
G01*
X129097500Y-79431000D01*
G75*
G02*
X129260000Y-79593500I0J-162500D01*
G01*
X129260000Y-79918500D01*
G75*
G02*
X129097500Y-80081000I-162500J0D01*
G01*
X127447500Y-80081000D01*
G75*
G02*
X127285000Y-79918500I0J162500D01*
G01*
G37*
G04 #@! TD.AperFunction*
G04 #@! TA.AperFunction,SMDPad,CuDef*
G36*
G01*
X132360000Y-79918500D02*
X132360000Y-79593500D01*
G75*
G02*
X132522500Y-79431000I162500J0D01*
G01*
X134172500Y-79431000D01*
G75*
G02*
X134335000Y-79593500I0J-162500D01*
G01*
X134335000Y-79918500D01*
G75*
G02*
X134172500Y-80081000I-162500J0D01*
G01*
X132522500Y-80081000D01*
G75*
G02*
X132360000Y-79918500I0J162500D01*
G01*
G37*
G04 #@! TD.AperFunction*
G04 #@! TA.AperFunction,SMDPad,CuDef*
G36*
G01*
X132360000Y-78648500D02*
X132360000Y-78323500D01*
G75*
G02*
X132522500Y-78161000I162500J0D01*
G01*
X134172500Y-78161000D01*
G75*
G02*
X134335000Y-78323500I0J-162500D01*
G01*
X134335000Y-78648500D01*
G75*
G02*
X134172500Y-78811000I-162500J0D01*
G01*
X132522500Y-78811000D01*
G75*
G02*
X132360000Y-78648500I0J162500D01*
G01*
G37*
G04 #@! TD.AperFunction*
G04 #@! TA.AperFunction,SMDPad,CuDef*
G36*
G01*
X132360000Y-77378500D02*
X132360000Y-77053500D01*
G75*
G02*
X132522500Y-76891000I162500J0D01*
G01*
X134172500Y-76891000D01*
G75*
G02*
X134335000Y-77053500I0J-162500D01*
G01*
X134335000Y-77378500D01*
G75*
G02*
X134172500Y-77541000I-162500J0D01*
G01*
X132522500Y-77541000D01*
G75*
G02*
X132360000Y-77378500I0J162500D01*
G01*
G37*
G04 #@! TD.AperFunction*
G04 #@! TA.AperFunction,SMDPad,CuDef*
G36*
G01*
X132360000Y-76108500D02*
X132360000Y-75783500D01*
G75*
G02*
X132522500Y-75621000I162500J0D01*
G01*
X134172500Y-75621000D01*
G75*
G02*
X134335000Y-75783500I0J-162500D01*
G01*
X134335000Y-76108500D01*
G75*
G02*
X134172500Y-76271000I-162500J0D01*
G01*
X132522500Y-76271000D01*
G75*
G02*
X132360000Y-76108500I0J162500D01*
G01*
G37*
G04 #@! TD.AperFunction*
D23*
X119291000Y-52034000D03*
X111341000Y-52034000D03*
X119291000Y-47534000D03*
X111341000Y-47534000D03*
G04 #@! TA.AperFunction,ComponentPad*
G36*
G01*
X114731600Y-96938800D02*
X114731600Y-95188800D01*
G75*
G02*
X115606600Y-94313800I875000J0D01*
G01*
X117356600Y-94313800D01*
G75*
G02*
X118231600Y-95188800I0J-875000D01*
G01*
X118231600Y-96938800D01*
G75*
G02*
X117356600Y-97813800I-875000J0D01*
G01*
X115606600Y-97813800D01*
G75*
G02*
X114731600Y-96938800I0J875000D01*
G01*
G37*
G04 #@! TD.AperFunction*
G04 #@! TA.AperFunction,ComponentPad*
G36*
G01*
X111981600Y-92363800D02*
X111981600Y-90363800D01*
G75*
G02*
X112731600Y-89613800I750000J0D01*
G01*
X114231600Y-89613800D01*
G75*
G02*
X114981600Y-90363800I0J-750000D01*
G01*
X114981600Y-92363800D01*
G75*
G02*
X114231600Y-93113800I-750000J0D01*
G01*
X112731600Y-93113800D01*
G75*
G02*
X111981600Y-92363800I0J750000D01*
G01*
G37*
G04 #@! TD.AperFunction*
D24*
X119481600Y-91363800D03*
D19*
X137668000Y-96266000D03*
D18*
X140208000Y-96266000D03*
X142748000Y-96266000D03*
X145288000Y-96266000D03*
X147828000Y-96266000D03*
X150368000Y-96266000D03*
X152908000Y-96266000D03*
X155448000Y-96266000D03*
X128524000Y-48006000D03*
X131064000Y-48006000D03*
X133604000Y-48006000D03*
X136144000Y-48006000D03*
X138684000Y-48006000D03*
X141224000Y-48006000D03*
X143764000Y-48006000D03*
X146304000Y-48006000D03*
X148844000Y-48006000D03*
D19*
X151384000Y-48006000D03*
D18*
X155448000Y-48006000D03*
X157988000Y-48006000D03*
X160528000Y-48006000D03*
X163068000Y-48006000D03*
X165608000Y-48006000D03*
X168148000Y-48006000D03*
X170688000Y-48006000D03*
D19*
X173228000Y-48006000D03*
D18*
X173228000Y-96266000D03*
X170688000Y-96266000D03*
X168148000Y-96266000D03*
X165608000Y-96266000D03*
X163068000Y-96266000D03*
D19*
X160528000Y-96266000D03*
D25*
X111721500Y-82740500D03*
D26*
X118021500Y-82740500D03*
X118021500Y-80440500D03*
X118021500Y-85040500D03*
X111721500Y-72820500D03*
X111721500Y-77420500D03*
X111721500Y-75120500D03*
D25*
X118021500Y-75120500D03*
D27*
X175768000Y-91186000D03*
X175768000Y-63246000D03*
X124968000Y-48006000D03*
X123698000Y-96266000D03*
D28*
X133350000Y-74422000D03*
X115570000Y-82804000D03*
X122555000Y-72593200D03*
X114046000Y-77139800D03*
X125857001Y-81889601D03*
X127280510Y-70073057D03*
X131445000Y-79502000D03*
X120200000Y-61000000D03*
X120200000Y-56500000D03*
X139700000Y-77900000D03*
X113700000Y-72800000D03*
X133900000Y-69900000D03*
X135100000Y-63300000D03*
X125300000Y-52900000D03*
X152000000Y-67300000D03*
X115600000Y-85100000D03*
X124200000Y-83600000D03*
X120700000Y-69200000D03*
X128270000Y-80924400D03*
X132181600Y-83616800D03*
X115166000Y-47534000D03*
X120500000Y-79400000D03*
X129667000Y-73025000D03*
X120777000Y-75438000D03*
X129410000Y-58801328D03*
X172516800Y-64312800D03*
X119380000Y-50482500D03*
X128079500Y-67881500D03*
X136417050Y-53676550D03*
X169341802Y-83845400D03*
X171526200Y-77114400D03*
X126309120Y-60398660D03*
X128177586Y-60139980D03*
D29*
X116525000Y-69403000D02*
X116525000Y-69453000D01*
X116522500Y-68834000D02*
X116522500Y-69534000D01*
X116525000Y-68816500D02*
X116888500Y-68453000D01*
X125930000Y-67200000D02*
X125930000Y-69800000D01*
X116888500Y-68453000D02*
X119062500Y-68453000D01*
X119062500Y-68453000D02*
X121415500Y-66100000D01*
X121415500Y-66100000D02*
X124830000Y-66100000D01*
X124830000Y-66100000D02*
X125930000Y-67200000D01*
X125930000Y-69800000D02*
X126310000Y-70180000D01*
X126310000Y-70180000D02*
X126314451Y-70180000D01*
X126314451Y-70180000D02*
X128272500Y-72138049D01*
X128272500Y-72138049D02*
X128272500Y-75946000D01*
X116825000Y-67453000D02*
X117475000Y-67453000D01*
X115998600Y-67453000D02*
X116825000Y-67453000D01*
X113420800Y-70030800D02*
X115998600Y-67453000D01*
X112445800Y-70030800D02*
X113420800Y-70030800D01*
X133794500Y-61456000D02*
X133794500Y-60706000D01*
X133085500Y-62165000D02*
X133794500Y-61456000D01*
X131826000Y-62165000D02*
X133085500Y-62165000D01*
X117475000Y-67453000D02*
X118125000Y-67453000D01*
X125655216Y-59880500D02*
X126120739Y-59414977D01*
X120713500Y-64864500D02*
X120713500Y-61912500D01*
X122745500Y-59880500D02*
X125655216Y-59880500D01*
X131826000Y-61190000D02*
X131826000Y-62165000D01*
X126120739Y-59414977D02*
X128982425Y-59414977D01*
X118125000Y-67453000D02*
X120713500Y-64864500D01*
X120713500Y-61912500D02*
X122745500Y-59880500D01*
X129096694Y-59529246D02*
X130165246Y-59529246D01*
X128982425Y-59414977D02*
X129096694Y-59529246D01*
X130165246Y-59529246D02*
X131826000Y-61190000D01*
D30*
X122506500Y-74041000D02*
X122506500Y-76136500D01*
D31*
X111721500Y-78420500D02*
X111721500Y-82740500D01*
X111721500Y-77420500D02*
X111721500Y-78420500D01*
D29*
X140652500Y-62342000D02*
X142811500Y-62342000D01*
X153707999Y-86830001D02*
X152908000Y-87630000D01*
X154033001Y-86504999D02*
X153707999Y-86830001D01*
X154622500Y-85915500D02*
X154033001Y-86504999D01*
X169507502Y-85915500D02*
X154622500Y-85915500D01*
X176752501Y-78670501D02*
X169507502Y-85915500D01*
X175577500Y-69088000D02*
X176752501Y-70263001D01*
X176752501Y-70263001D02*
X176752501Y-78670501D01*
X150050500Y-94043500D02*
X147828000Y-96266000D01*
X150939500Y-94043500D02*
X150050500Y-94043500D01*
X156718000Y-88265000D02*
X150939500Y-94043500D01*
X156718000Y-86487000D02*
X156718000Y-88265000D01*
X154622500Y-85915500D02*
X156146500Y-85915500D01*
X156146500Y-85915500D02*
X156718000Y-86487000D01*
X111783000Y-78359000D02*
X111721500Y-78420500D01*
X112002200Y-77139800D02*
X111721500Y-77420500D01*
X114046000Y-77139800D02*
X112002200Y-77139800D01*
X175577500Y-67858400D02*
X175577500Y-69088000D01*
X173759100Y-66040000D02*
X175577500Y-67858400D01*
X111971500Y-77420500D02*
X111721500Y-77420500D01*
X114830900Y-72618600D02*
X116522500Y-70927000D01*
X114833400Y-75558600D02*
X114833400Y-72618600D01*
X112002200Y-77139800D02*
X113252200Y-77139800D01*
X113252200Y-77139800D02*
X114833400Y-75558600D01*
D30*
X140208000Y-96266000D02*
X140208000Y-95063919D01*
X140208000Y-95063919D02*
X138743081Y-93599000D01*
D32*
X125857002Y-81889600D02*
X125857001Y-81889601D01*
X129567700Y-81889600D02*
X125857002Y-81889600D01*
D30*
X145161000Y-93599000D02*
X147828000Y-96266000D01*
X138743081Y-93599000D02*
X145161000Y-93599000D01*
D29*
X122555000Y-73992500D02*
X122506500Y-74041000D01*
X122555000Y-72593200D02*
X122555000Y-73992500D01*
X118425000Y-69503000D02*
X118425000Y-69453000D01*
X117001000Y-70927000D02*
X118425000Y-69503000D01*
X116522500Y-70927000D02*
X117001000Y-70927000D01*
X133350000Y-75943500D02*
X133347500Y-75946000D01*
X136476500Y-73406000D02*
X133939000Y-75943500D01*
X133939000Y-75943500D02*
X133350000Y-75943500D01*
X132372100Y-90131900D02*
X132334000Y-90170000D01*
D30*
X129567700Y-87327500D02*
X129567700Y-81889600D01*
X132372100Y-90131900D02*
X129567700Y-87327500D01*
X115633500Y-82740500D02*
X115570000Y-82804000D01*
X118021500Y-82740500D02*
X115633500Y-82740500D01*
D29*
X133347500Y-74424500D02*
X133350000Y-74422000D01*
X133347500Y-75946000D02*
X133347500Y-74424500D01*
D30*
X131445000Y-80012300D02*
X131445000Y-79502000D01*
X129567700Y-81889600D02*
X131445000Y-80012300D01*
D29*
X139002500Y-66484500D02*
X138415000Y-66484500D01*
X140652500Y-62342000D02*
X140652500Y-64834500D01*
X140652500Y-64834500D02*
X139002500Y-66484500D01*
X137221200Y-67678300D02*
X138415000Y-66484500D01*
X127280510Y-70073057D02*
X129675267Y-67678300D01*
X129675267Y-67678300D02*
X137221200Y-67678300D01*
D30*
X134112000Y-91810840D02*
X134112000Y-90811000D01*
X138743081Y-93599000D02*
X135900160Y-93599000D01*
X135900160Y-93599000D02*
X134112000Y-91810840D01*
X133051200Y-90811000D02*
X132372100Y-90131900D01*
X134112000Y-90811000D02*
X133051200Y-90811000D01*
D29*
X125707400Y-89179400D02*
X125298200Y-89179400D01*
D31*
X122365500Y-80440500D02*
X118021500Y-80440500D01*
X122506500Y-80581500D02*
X122365500Y-80440500D01*
X128911000Y-90811000D02*
X125857000Y-90811000D01*
X132194000Y-95666000D02*
X132194000Y-94094000D01*
X132194000Y-94094000D02*
X128911000Y-90811000D01*
X122506500Y-87460500D02*
X125857000Y-90811000D01*
X122506500Y-80581500D02*
X122506500Y-87460500D01*
D29*
X153987500Y-97726500D02*
X155448000Y-96266000D01*
X134654500Y-97726500D02*
X153987500Y-97726500D01*
X133194000Y-96266000D02*
X134654500Y-97726500D01*
X132194000Y-95666000D02*
X132194000Y-96266000D01*
X132194000Y-96266000D02*
X133194000Y-96266000D01*
X111341000Y-47534000D02*
X115166000Y-47534000D01*
X120730000Y-69230000D02*
X120700000Y-69200000D01*
X124460000Y-69230000D02*
X120730000Y-69230000D01*
X115166000Y-47534000D02*
X119291000Y-47534000D01*
X133775800Y-85211000D02*
X134112000Y-85211000D01*
X128272500Y-80921900D02*
X128270000Y-80924400D01*
X128272500Y-79756000D02*
X128272500Y-80921900D01*
D30*
X115659500Y-85040500D02*
X115600000Y-85100000D01*
X118021500Y-85040500D02*
X115659500Y-85040500D01*
X124246000Y-83600000D02*
X125857000Y-85211000D01*
X124200000Y-83600000D02*
X124246000Y-83600000D01*
X131442700Y-82877900D02*
X132181600Y-83616800D01*
X131442700Y-81889600D02*
X131442700Y-82877900D01*
X132517800Y-83616800D02*
X134112000Y-85211000D01*
X132181600Y-83616800D02*
X132517800Y-83616800D01*
X152000000Y-67820000D02*
X152140000Y-67960000D01*
X152000000Y-67300000D02*
X152000000Y-67820000D01*
X152140000Y-67960000D02*
X153924000Y-67960000D01*
X150177500Y-67960000D02*
X152140000Y-67960000D01*
D29*
X135600000Y-62800000D02*
X135100000Y-63300000D01*
X138000000Y-62800000D02*
X135600000Y-62800000D01*
X138415000Y-63215000D02*
X138000000Y-62800000D01*
X138415000Y-64389000D02*
X138415000Y-63215000D01*
X137400000Y-69884500D02*
X136540000Y-69024500D01*
X137400000Y-72454500D02*
X137400000Y-69884500D01*
X138351500Y-73406000D02*
X137400000Y-72454500D01*
X134775500Y-69024500D02*
X133900000Y-69900000D01*
X136540000Y-69024500D02*
X134775500Y-69024500D01*
X125310500Y-52910500D02*
X125300000Y-52900000D01*
X127000000Y-52910500D02*
X125310500Y-52910500D01*
X131826000Y-57215000D02*
X134315000Y-57215000D01*
X135064500Y-57964500D02*
X135064500Y-60706000D01*
X134315000Y-57215000D02*
X135064500Y-57964500D01*
D30*
X111742000Y-72800000D02*
X111721500Y-72820500D01*
X113700000Y-72800000D02*
X111742000Y-72800000D01*
D29*
X139700000Y-77900000D02*
X137700000Y-79900000D01*
X137700000Y-80818500D02*
X137668000Y-80850500D01*
X137700000Y-79900000D02*
X137700000Y-80818500D01*
X117967500Y-56500000D02*
X117900500Y-56567000D01*
X120200000Y-56500000D02*
X117967500Y-56500000D01*
X118710502Y-63067000D02*
X117900500Y-63067000D01*
X120200000Y-61577502D02*
X118710502Y-63067000D01*
X120200000Y-61000000D02*
X120200000Y-61577502D01*
X124381500Y-74041000D02*
X124381500Y-76136500D01*
X122506500Y-78011500D02*
X122506500Y-78549500D01*
X124381500Y-76136500D02*
X122506500Y-78011500D01*
X121350500Y-78549500D02*
X120500000Y-79400000D01*
X122506500Y-78549500D02*
X121350500Y-78549500D01*
X128016000Y-55801500D02*
X128016000Y-57215000D01*
X127000000Y-54785500D02*
X128016000Y-55801500D01*
D30*
X122428000Y-71105000D02*
X124460000Y-71105000D01*
D29*
X122125500Y-70802500D02*
X122428000Y-71105000D01*
D31*
X122413000Y-71120000D02*
X122428000Y-71105000D01*
X118021500Y-75120500D02*
X118339000Y-75438000D01*
X118339000Y-75438000D02*
X120777000Y-75438000D01*
D29*
X126174500Y-72819500D02*
X124460000Y-71105000D01*
X126174500Y-76060300D02*
X126174500Y-72819500D01*
X128272500Y-77216000D02*
X127330200Y-77216000D01*
X127330200Y-77216000D02*
X126174500Y-76060300D01*
D30*
X122428000Y-71105000D02*
X118506000Y-71105000D01*
X118021500Y-71589500D02*
X118021500Y-75120500D01*
X118506000Y-71105000D02*
X118021500Y-71589500D01*
D29*
X129667000Y-76809000D02*
X129260000Y-77216000D01*
X129260000Y-77216000D02*
X128272500Y-77216000D01*
X129667000Y-73025000D02*
X129667000Y-76809000D01*
X128016000Y-58190000D02*
X128627328Y-58801328D01*
X128016000Y-57215000D02*
X128016000Y-58190000D01*
X128627328Y-58801328D02*
X129410000Y-58801328D01*
X130556000Y-55420500D02*
X131191000Y-54785500D01*
X130556000Y-57215000D02*
X130556000Y-55420500D01*
X129286000Y-54912500D02*
X129159000Y-54785500D01*
X129286000Y-57215000D02*
X129286000Y-54912500D01*
X132346940Y-63995300D02*
X133172200Y-64820560D01*
X128813560Y-63995300D02*
X132346940Y-63995300D01*
X128016000Y-62165000D02*
X128016000Y-63197740D01*
X128016000Y-63197740D02*
X128813560Y-63995300D01*
X173736000Y-79502000D02*
X173228000Y-80010000D01*
X112366000Y-52034000D02*
X119291000Y-52034000D01*
X111341000Y-52034000D02*
X112366000Y-52034000D01*
X119342000Y-52085000D02*
X119291000Y-52034000D01*
X173037500Y-79819500D02*
X173228000Y-80010000D01*
X173037500Y-74168000D02*
X173037500Y-79819500D01*
X119380000Y-51945000D02*
X119291000Y-52034000D01*
X119380000Y-50482500D02*
X119380000Y-51945000D01*
X171884100Y-64945500D02*
X172516800Y-64312800D01*
X171884100Y-66040000D02*
X171884100Y-64945500D01*
X129265440Y-66695560D02*
X133172200Y-66695560D01*
X128079500Y-67881500D02*
X129265440Y-66695560D01*
X136540000Y-53799500D02*
X136540000Y-56007000D01*
X131191000Y-52910500D02*
X135651000Y-52910500D01*
X135651000Y-52910500D02*
X136417050Y-53676550D01*
X136417050Y-53676550D02*
X136540000Y-53799500D01*
X137604500Y-59998894D02*
X137604500Y-60706000D01*
X137477500Y-59871894D02*
X137604500Y-59998894D01*
X136540000Y-55753000D02*
X137477500Y-56690500D01*
X137477500Y-56690500D02*
X137477500Y-59871894D01*
X131737096Y-53784500D02*
X134423197Y-56470601D01*
X129159000Y-52910500D02*
X130033000Y-53784500D01*
X136540000Y-58229500D02*
X135181100Y-56870600D01*
X135181100Y-56870600D02*
X134823196Y-56870600D01*
X134423197Y-56470601D02*
X134823196Y-56870600D01*
X130033000Y-53784500D02*
X131737096Y-53784500D01*
X136334500Y-58181000D02*
X136540000Y-57975500D01*
X136334500Y-60706000D02*
X136334500Y-58181000D01*
X128602763Y-52354263D02*
X129159000Y-52910500D01*
X127127000Y-50878500D02*
X128602763Y-52354263D01*
X170226381Y-46342300D02*
X128104900Y-46342300D01*
X170688000Y-48006000D02*
X170688000Y-46803919D01*
X128104900Y-46342300D02*
X127127000Y-47320200D01*
X170688000Y-46803919D02*
X170226381Y-46342300D01*
X127127000Y-47320200D02*
X127127000Y-50878500D01*
X174402499Y-70452999D02*
X174402499Y-68167997D01*
X174402499Y-68167997D02*
X173925502Y-67691000D01*
X175577500Y-71628000D02*
X174402499Y-70452999D01*
X173925502Y-67691000D02*
X168173400Y-67691000D01*
X168173400Y-67691000D02*
X163918900Y-63436500D01*
X159194500Y-63436500D02*
X143764000Y-48006000D01*
X163918900Y-63436500D02*
X159194500Y-63436500D01*
X165608000Y-80010000D02*
X165100000Y-79502000D01*
X157416500Y-64198500D02*
X141224000Y-48006000D01*
X168211500Y-69088000D02*
X163322000Y-64198500D01*
X163322000Y-64198500D02*
X157416500Y-64198500D01*
X173037500Y-69088000D02*
X168211500Y-69088000D01*
X155625800Y-64947800D02*
X139533999Y-48855999D01*
X139533999Y-48855999D02*
X138684000Y-48006000D01*
X162636200Y-64947800D02*
X155625800Y-64947800D01*
X173037500Y-71628000D02*
X169316400Y-71628000D01*
X169316400Y-71628000D02*
X162636200Y-64947800D01*
X135379500Y-81788000D02*
X133347500Y-79756000D01*
X138938000Y-81788000D02*
X135379500Y-81788000D01*
X141619710Y-84469710D02*
X138938000Y-81788000D01*
X143792712Y-84469710D02*
X141619710Y-84469710D01*
X146600000Y-87276998D02*
X143792712Y-84469710D01*
X146600000Y-88307000D02*
X146600000Y-87276998D01*
X147493000Y-89200000D02*
X146600000Y-88307000D01*
X148798000Y-89200000D02*
X147493000Y-89200000D01*
X150368000Y-87630000D02*
X148798000Y-89200000D01*
X137668000Y-90170000D02*
X137668000Y-82725500D01*
X138684000Y-91186000D02*
X137668000Y-90170000D01*
X155448000Y-87630000D02*
X151892000Y-91186000D01*
X151892000Y-91186000D02*
X138684000Y-91186000D01*
X160528000Y-87630000D02*
X160528000Y-96266000D01*
X163068000Y-88761370D02*
X163068000Y-96266000D01*
X163068000Y-87630000D02*
X163068000Y-88761370D01*
X165608000Y-88761370D02*
X165608000Y-96266000D01*
X165608000Y-87630000D02*
X165608000Y-88761370D01*
X168148000Y-88761370D02*
X168148000Y-96266000D01*
X168148000Y-87630000D02*
X168148000Y-88761370D01*
X155956000Y-48514000D02*
X155448000Y-48006000D01*
X170688000Y-88761370D02*
X170688000Y-96266000D01*
X170688000Y-87630000D02*
X170688000Y-88761370D01*
X150977600Y-66319400D02*
X158750000Y-66319400D01*
X169341802Y-76911202D02*
X169341802Y-83279715D01*
X169341802Y-83279715D02*
X169341802Y-83845400D01*
X158750000Y-66319400D02*
X169341802Y-76911202D01*
X136906000Y-52247800D02*
X150977600Y-66319400D01*
X135305800Y-52247800D02*
X136906000Y-52247800D01*
X131064000Y-48006000D02*
X135305800Y-52247800D01*
X173228000Y-87630000D02*
X173228000Y-96266000D01*
X171526200Y-77114400D02*
X171526200Y-77114400D01*
X159962010Y-65550210D02*
X171526200Y-77114400D01*
X129699001Y-46830999D02*
X134168001Y-46830999D01*
X128524000Y-48006000D02*
X129699001Y-46830999D01*
X134168001Y-46830999D02*
X134848600Y-47511598D01*
X134848600Y-47511598D02*
X134848600Y-48449602D01*
X134848600Y-48449602D02*
X151949208Y-65550210D01*
X151949208Y-65550210D02*
X159962010Y-65550210D01*
X114071400Y-63654380D02*
X113930510Y-63795270D01*
X114071400Y-60436098D02*
X114071400Y-63654380D01*
X117103498Y-57404000D02*
X114071400Y-60436098D01*
X117900500Y-57367000D02*
X117863500Y-57404000D01*
X117863500Y-57404000D02*
X117103498Y-57404000D01*
X115800580Y-61925200D02*
X113930510Y-63795270D01*
X116814600Y-61925200D02*
X115800580Y-61925200D01*
X117900500Y-62267000D02*
X117156400Y-62267000D01*
X117156400Y-62267000D02*
X116814600Y-61925200D01*
X113930510Y-63795270D02*
X113930510Y-65203490D01*
X113930510Y-65203490D02*
X113509600Y-65624400D01*
X113509600Y-66167000D02*
X112445800Y-67230800D01*
X113509600Y-65624400D02*
X113509600Y-66167000D01*
X124445000Y-78486000D02*
X124381500Y-78549500D01*
X128272500Y-78486000D02*
X124445000Y-78486000D01*
X124381500Y-78549500D02*
X124381500Y-80581500D01*
X133347500Y-77216000D02*
X133347500Y-78486000D01*
X131318000Y-77787500D02*
X132016500Y-78486000D01*
X131318000Y-72517000D02*
X131318000Y-77787500D01*
X136491500Y-71056500D02*
X132778500Y-71056500D01*
X132016500Y-78486000D02*
X133347500Y-78486000D01*
X132778500Y-71056500D02*
X131318000Y-72517000D01*
X138415000Y-71008000D02*
X138366500Y-71056500D01*
X138415000Y-69024500D02*
X138415000Y-71008000D01*
D31*
X127279400Y-96266000D02*
X127394000Y-96266000D01*
X119507000Y-92011500D02*
X123024900Y-92011500D01*
X123024900Y-92011500D02*
X127279400Y-96266000D01*
D29*
X119963500Y-59067000D02*
X120015000Y-59118500D01*
X117900500Y-59067000D02*
X119963500Y-59067000D01*
X125476000Y-58290000D02*
X125476000Y-57215000D01*
X124901500Y-58864500D02*
X125476000Y-58290000D01*
X120269000Y-58864500D02*
X124901500Y-58864500D01*
X117900500Y-60067000D02*
X119066500Y-60067000D01*
X119066500Y-60067000D02*
X120269000Y-58864500D01*
X126746000Y-57785000D02*
X126746000Y-57215000D01*
X125158500Y-59372500D02*
X126746000Y-57785000D01*
X120586500Y-59372500D02*
X125158500Y-59372500D01*
X117900500Y-60567000D02*
X119392000Y-60567000D01*
X119392000Y-60567000D02*
X120586500Y-59372500D01*
X116925500Y-60567000D02*
X117900500Y-60567000D01*
X116713000Y-60354500D02*
X116925500Y-60567000D01*
X116713000Y-59779500D02*
X116713000Y-60354500D01*
X117900500Y-59567000D02*
X116925500Y-59567000D01*
X116925500Y-59567000D02*
X116713000Y-59779500D01*
X138493500Y-58308000D02*
X138415000Y-58229500D01*
X140652500Y-60213000D02*
X140652500Y-60467000D01*
X138415000Y-57975500D02*
X140652500Y-60213000D01*
X142811500Y-60149500D02*
X142811500Y-60467000D01*
X138415000Y-56007000D02*
X142811500Y-60403500D01*
X136540000Y-64389000D02*
X136540000Y-66484500D01*
X153987500Y-73469500D02*
X152908000Y-74549000D01*
X153924000Y-73406000D02*
X153987500Y-73469500D01*
X153924000Y-69835000D02*
X153924000Y-73406000D01*
X152782000Y-77165200D02*
X152908000Y-77165200D01*
X152680400Y-77063600D02*
X152782000Y-77165200D01*
X152092900Y-77063600D02*
X152680400Y-77063600D01*
X152908000Y-74549000D02*
X152908000Y-77165200D01*
X152908000Y-77165200D02*
X152908000Y-80010000D01*
X150187500Y-79829500D02*
X150368000Y-80010000D01*
X148797000Y-75642700D02*
X150217900Y-77063600D01*
X148797000Y-73342500D02*
X148797000Y-75642700D01*
X150177500Y-71962000D02*
X150177500Y-69835000D01*
X148797000Y-73342500D02*
X150177500Y-71962000D01*
X150217900Y-79859900D02*
X150368000Y-80010000D01*
X150217900Y-77063600D02*
X150217900Y-79859900D01*
X125171200Y-64447420D02*
X124592080Y-65026540D01*
X125171200Y-63700660D02*
X125171200Y-64447420D01*
X125476000Y-62165000D02*
X125476000Y-63395860D01*
X125476000Y-63395860D02*
X125171200Y-63700660D01*
X125851920Y-63787020D02*
X125851920Y-65016380D01*
X125851920Y-65016380D02*
X125862080Y-65026540D01*
X126746000Y-62165000D02*
X126746000Y-62892940D01*
X126746000Y-62892940D02*
X125851920Y-63787020D01*
X124206000Y-62165000D02*
X124073920Y-62297080D01*
X124073920Y-64274700D02*
X123322080Y-65026540D01*
X124073920Y-62297080D02*
X124073920Y-64274700D01*
X129286000Y-62165000D02*
X129286000Y-61582300D01*
X129286000Y-62165000D02*
X129286000Y-61190000D01*
X129286000Y-61190000D02*
X128960990Y-60864990D01*
X126709119Y-60798659D02*
X126309120Y-60398660D01*
X128960990Y-60864990D02*
X126775450Y-60864990D01*
X126775450Y-60864990D02*
X126709119Y-60798659D01*
X122936000Y-64142620D02*
X122052080Y-65026540D01*
X122936000Y-62165000D02*
X122936000Y-64142620D01*
X130556000Y-62165000D02*
X130556000Y-61190000D01*
X130556000Y-61190000D02*
X129505980Y-60139980D01*
X129505980Y-60139980D02*
X128743271Y-60139980D01*
X128743271Y-60139980D02*
X128177586Y-60139980D01*
M02*
